<svg width="1343" height="1120" viewBox="0 0 1343 1120" fill="none" xmlns="http://www.w3.org/2000/svg">
<path d="M671.369 1119.47C1042.16 1119.47 1342.74 1089.66 1342.74 1052.87C1342.74 1016.09 1042.16 986.277 671.369 986.277C300.582 986.277 0 1016.09 0 1052.87C0 1089.66 300.582 1119.47 671.369 1119.47Z" fill="#9AD0C2"/>
<path opacity="0.5" d="M671.369 1119.47C1042.16 1119.47 1342.74 1089.66 1342.74 1052.87C1342.74 1016.09 1042.16 986.277 671.369 986.277C300.582 986.277 0 1016.09 0 1052.87C0 1089.66 300.582 1119.47 671.369 1119.47Z" fill="white"/>
<path d="M1336.57 706.545H83.4412V717.965H1336.57V706.545Z" fill="#263238"/>
<path d="M964.475 567.185C966.937 567.822 969.479 568.094 972.02 567.993C972.02 567.993 970.875 564.624 970.774 564.288C969.595 561.862 965.889 557.82 962.891 558.224C962.39 558.3 961.91 558.482 961.484 558.759C961.058 559.035 960.696 559.399 960.422 559.826C960.148 560.253 959.968 560.733 959.894 561.236C959.82 561.738 959.855 562.25 959.994 562.738C960.374 563.76 960.971 564.687 961.745 565.455C962.518 566.223 963.45 566.813 964.475 567.185Z" fill="#263238"/>
<path d="M1034.51 548.893C1031.48 548.556 1027.77 552.699 1026.79 555.158C1026.79 555.394 1025.58 558.898 1025.65 558.898L1023.83 561.053C1022.62 562.502 1021.3 564.153 1019.99 566.039C1018.55 568.074 1017.22 570.188 1016.01 572.372C1014.67 574.807 1013.54 577.354 1012.65 579.985C1012.65 579.076 1012.65 576.617 1012.65 576.414C1012.28 573.72 1010.02 568.7 1007.05 568.161C1006.56 568.08 1006.05 568.105 1005.56 568.235C1005.07 568.365 1004.62 568.596 1004.23 568.915C1003.83 569.233 1003.51 569.631 1003.29 570.081C1003.06 570.532 1002.93 571.026 1002.91 571.53C1002.94 572.622 1003.21 573.693 1003.71 574.666C1004.2 575.639 1004.91 576.49 1005.77 577.156C1007.85 578.531 1010.12 579.588 1012.51 580.288C1011.64 582.987 1010.96 585.746 1010.49 588.542C1010.22 590.159 1009.95 591.91 1009.75 593.46C1009.75 592.685 1009.75 592.011 1009.75 591.91C1009.38 589.215 1007.12 584.23 1004.16 583.691C1003.66 583.615 1003.15 583.644 1002.66 583.776C1002.17 583.907 1001.72 584.139 1001.33 584.456C1000.93 584.772 1000.61 585.168 1000.38 585.616C1000.15 586.064 1000.01 586.556 999.98 587.059C1000.03 588.151 1000.31 589.219 1000.81 590.191C1001.31 591.162 1002.02 592.013 1002.88 592.685C1004.96 594.035 1007.23 595.068 1009.61 595.751C1009.61 596.357 1009.45 596.997 1009.38 597.637C1009.01 600.702 1008.67 603.734 1008.23 606.699C1008.23 607.777 1007.9 608.787 1007.69 609.831C1007.72 609.383 1007.72 608.933 1007.69 608.484C1007.36 605.789 1005.1 600.77 1002.1 600.231C1001.6 600.149 1001.09 600.174 1000.61 600.304C1000.12 600.434 999.665 600.666 999.274 600.984C998.882 601.302 998.563 601.7 998.336 602.151C998.109 602.602 997.981 603.095 997.959 603.599C998.003 604.691 998.286 605.76 998.786 606.732C999.286 607.704 999.993 608.555 1000.86 609.225C1002.82 610.553 1004.98 611.565 1007.26 612.223C1007.05 613.267 1006.82 614.312 1006.55 615.322C1006.4 616.005 1006.23 616.68 1006.01 617.343C1005.77 618.017 1005.57 618.691 1005.34 619.365C1004.9 620.611 1004.43 621.925 1003.95 623.137L1002.98 625.563C1003.15 624.519 1003.42 622.497 1003.42 622.194C1003.4 619.825 1002.76 617.501 1001.56 615.457C1001.6 615.188 1001.6 614.917 1001.56 614.649C1001.5 614.15 1001.33 613.669 1001.07 613.239C1000.81 612.809 1000.47 612.439 1000.05 612.152C999.639 611.866 999.17 611.671 998.675 611.578C998.181 611.486 997.673 611.499 997.184 611.617C994.253 612.392 992.367 617.546 992.232 620.24C992.232 620.409 992.232 622.161 992.434 623.239C992.266 622.632 992.131 621.992 991.963 621.352C991.659 620.038 991.323 618.758 990.952 617.377L990.346 615.356C990.144 614.682 989.874 614.008 989.638 613.301C989.066 611.718 988.392 610.135 987.684 608.551C990.048 608.065 992.321 607.213 994.422 606.025C995.34 605.424 996.117 604.631 996.698 603.7C997.28 602.769 997.653 601.724 997.79 600.635C997.806 600.13 997.715 599.627 997.524 599.159C997.332 598.691 997.044 598.268 996.679 597.919C996.314 597.57 995.879 597.301 995.403 597.13C994.927 596.96 994.421 596.891 993.916 596.929C990.885 597.266 988.257 602.083 987.718 604.745C987.718 604.913 987.516 606.867 987.415 607.911C986.977 606.968 986.573 606.025 986.101 605.082C984.754 602.387 983.305 599.658 981.857 596.963L980.543 594.47C983.004 593.955 985.376 593.081 987.583 591.876C988.506 591.272 989.285 590.474 989.867 589.537C990.448 588.6 990.819 587.548 990.952 586.453C990.963 585.95 990.868 585.451 990.675 584.987C990.481 584.523 990.193 584.105 989.828 583.759C989.463 583.414 989.03 583.148 988.556 582.98C988.083 582.811 987.579 582.744 987.078 582.781C984.046 583.118 981.419 587.935 980.88 590.596C980.88 590.799 980.577 593.594 980.543 594.302C979.6 592.483 978.657 590.63 977.814 588.811C976.666 586.316 975.676 583.75 974.85 581.131C977.325 580.627 979.71 579.753 981.924 578.537C982.846 577.932 983.625 577.134 984.207 576.197C984.789 575.26 985.16 574.208 985.293 573.113C985.304 572.608 985.209 572.105 985.013 571.639C984.818 571.173 984.526 570.753 984.157 570.406C983.789 570.06 983.352 569.795 982.874 569.629C982.396 569.463 981.889 569.399 981.385 569.441C978.387 569.778 975.759 574.595 975.22 577.257C975.22 577.459 974.884 580.625 974.884 581.029C974.843 580.867 974.786 580.709 974.715 580.558C973.963 577.915 973.455 575.209 973.199 572.473C973.031 570.957 972.93 569.509 972.896 568.094C975.356 567.88 977.766 567.277 980.038 566.309C981.002 565.803 981.847 565.096 982.516 564.236C983.184 563.376 983.66 562.383 983.912 561.323C983.977 560.829 983.941 560.327 983.804 559.848C983.668 559.369 983.435 558.923 983.119 558.537C982.803 558.152 982.411 557.836 981.968 557.608C981.525 557.38 981.04 557.246 980.543 557.213C977.511 557.213 974.378 561.727 973.536 564.287C973.536 564.287 973.199 565.904 972.997 566.982C972.997 566.342 972.997 565.702 972.997 565.096C972.997 562.772 972.997 560.683 973.267 558.83C973.267 557.752 973.469 556.809 973.57 555.899C975.64 554.576 977.492 552.94 979.061 551.049C979.691 550.154 980.116 549.133 980.308 548.056C980.501 546.979 980.454 545.874 980.172 544.817C980.005 544.339 979.739 543.903 979.39 543.537C979.042 543.17 978.62 542.882 978.152 542.691C977.684 542.5 977.18 542.41 976.675 542.428C976.17 542.446 975.674 542.571 975.22 542.795C972.526 544.177 971.852 549.533 972.256 552.295C972.256 552.531 973.334 556.068 973.368 556.068C973.368 556.944 973.132 557.853 973.031 558.864C972.829 560.717 972.627 562.839 972.593 565.13C972.501 567.624 972.557 570.121 972.761 572.608C972.972 575.384 973.435 578.135 974.142 580.827C973.671 580.053 972.256 577.998 972.121 577.863C970.336 575.808 965.721 572.877 962.925 574.09C962.464 574.295 962.052 574.596 961.716 574.971C961.38 575.347 961.127 575.79 960.974 576.27C960.822 576.751 960.772 577.258 960.83 577.759C960.887 578.26 961.05 578.743 961.308 579.177C961.948 580.064 962.773 580.802 963.728 581.337C964.682 581.872 965.742 582.193 966.833 582.276C969.346 582.264 971.844 581.878 974.244 581.131C975.014 583.859 975.983 586.527 977.141 589.114C977.781 590.63 978.488 592.146 979.229 593.628C978.791 592.988 978.387 592.449 978.32 592.382C976.534 590.327 971.919 587.396 969.123 588.575C968.662 588.784 968.249 589.088 967.913 589.467C967.576 589.845 967.324 590.291 967.171 590.774C967.018 591.257 966.969 591.767 967.027 592.271C967.085 592.774 967.248 593.26 967.506 593.696C968.151 594.578 968.978 595.312 969.931 595.847C970.884 596.382 971.942 596.705 973.031 596.795C975.477 596.797 977.908 596.422 980.24 595.683C980.509 596.256 980.779 596.828 981.082 597.401C982.463 600.163 983.844 602.892 985.124 605.621C985.562 606.564 986 607.541 986.404 608.484L985.63 607.372C983.844 605.351 979.195 602.42 976.4 603.599C975.941 603.811 975.532 604.117 975.199 604.498C974.866 604.878 974.617 605.324 974.467 605.807C974.318 606.29 974.272 606.799 974.332 607.3C974.392 607.802 974.557 608.286 974.816 608.72C975.457 609.606 976.284 610.342 977.238 610.877C978.191 611.412 979.25 611.734 980.341 611.819C982.715 611.817 985.076 611.465 987.348 610.775C987.718 611.752 988.122 612.762 988.459 613.739C988.796 614.716 988.931 615.053 989.099 615.726L989.672 617.781C989.975 619.061 990.312 620.409 990.581 621.689C990.851 622.969 990.952 623.407 991.12 624.249L989.706 621.285C988.257 618.994 984.114 615.39 981.149 616.164C980.664 616.298 980.212 616.533 979.825 616.855C979.438 617.176 979.124 617.577 978.904 618.03C978.684 618.482 978.563 618.977 978.549 619.48C978.536 619.983 978.63 620.484 978.825 620.948C979.31 621.925 980.006 622.782 980.862 623.458C981.718 624.133 982.714 624.611 983.777 624.855C986.255 625.235 988.777 625.235 991.255 624.855C991.525 626.27 991.794 627.618 991.996 628.932C992.805 633.445 993.31 637.218 993.613 639.88C993.613 640.351 993.613 640.789 993.613 641.16H983.979L987.348 706.343H1002.91L1006.28 641.16H997.757L997.959 640.789C999.138 638.364 1000.75 634.86 1002.51 630.683L1004.19 626.405C1006.63 626.95 1009.14 627.143 1011.64 626.978C1012.7 626.817 1013.72 626.434 1014.62 625.854C1015.53 625.274 1016.3 624.509 1016.89 623.609C1017.12 623.158 1017.24 622.664 1017.26 622.161C1017.28 621.657 1017.2 621.155 1017.01 620.687C1016.82 620.219 1016.54 619.797 1016.17 619.447C1015.81 619.097 1015.38 618.828 1014.9 618.657C1012.01 617.68 1007.63 620.948 1006.01 623.137C1006.01 623.137 1005.03 624.788 1004.49 625.731L1005.2 623.879C1005.64 622.632 1006.08 621.386 1006.52 620.005L1007.12 618.017C1007.34 617.319 1007.52 616.611 1007.66 615.895C1008.06 614.244 1008.37 612.526 1008.67 610.876C1010.92 611.773 1013.3 612.318 1015.71 612.493C1016.81 612.492 1017.89 612.25 1018.88 611.784C1019.87 611.318 1020.74 610.64 1021.44 609.798C1021.73 609.383 1021.93 608.913 1022.02 608.417C1022.12 607.92 1022.11 607.409 1022 606.917C1021.88 606.424 1021.66 605.962 1021.36 605.558C1021.05 605.155 1020.67 604.821 1020.23 604.576C1017.53 603.195 1012.68 605.755 1010.76 607.675C1010.76 607.675 1009.41 609.326 1008.77 610.168C1008.94 609.158 1009.08 608.113 1009.21 607.069C1009.58 604.071 1009.88 601.006 1010.19 597.974C1010.19 597.031 1010.36 596.087 1010.46 595.144C1012.79 596.095 1015.25 596.675 1017.77 596.862C1018.86 596.861 1019.93 596.622 1020.92 596.162C1021.91 595.703 1022.79 595.034 1023.49 594.201C1023.78 593.787 1023.98 593.316 1024.08 592.82C1024.17 592.323 1024.16 591.812 1024.05 591.32C1023.94 590.828 1023.72 590.365 1023.41 589.961C1023.11 589.558 1022.72 589.224 1022.28 588.98C1019.59 587.565 1014.73 590.159 1012.81 592.045C1012.81 592.045 1010.89 594.403 1010.49 594.976C1010.69 592.921 1010.93 590.9 1011.26 588.878C1011.65 586.166 1012.24 583.487 1013.02 580.861C1015.35 581.798 1017.82 582.377 1020.33 582.579C1021.42 582.58 1022.5 582.342 1023.48 581.883C1024.47 581.423 1025.35 580.752 1026.05 579.918C1026.34 579.504 1026.54 579.033 1026.64 578.537C1026.73 578.04 1026.72 577.529 1026.61 577.037C1026.5 576.545 1026.28 576.082 1025.97 575.678C1025.67 575.275 1025.28 574.941 1024.84 574.697C1022.15 573.282 1017.33 575.876 1015.37 577.762C1015.37 577.93 1013.35 580.288 1013.02 580.76C1013.03 580.603 1013.03 580.445 1013.02 580.288C1013.85 577.666 1014.91 575.119 1016.18 572.675C1016.89 571.328 1017.63 570.081 1018.37 568.869C1020.55 570.033 1022.89 570.863 1025.31 571.328C1026.4 571.441 1027.5 571.315 1028.54 570.961C1029.57 570.606 1030.52 570.03 1031.31 569.273C1031.64 568.89 1031.88 568.444 1032.03 567.961C1032.17 567.479 1032.22 566.971 1032.16 566.471C1032.1 565.971 1031.93 565.488 1031.68 565.054C1031.42 564.62 1031.08 564.245 1030.67 563.951C1028.14 562.3 1023.06 564.321 1020.93 566.005C1020.93 566.005 1019.72 567.151 1018.98 567.926L1019.99 566.342C1021.27 564.422 1022.55 562.738 1023.7 561.256L1025.55 558.999C1028 559.04 1030.44 558.699 1032.79 557.988C1033.81 557.588 1034.73 556.97 1035.48 556.179C1036.24 555.388 1036.82 554.442 1037.17 553.407C1037.31 552.935 1037.35 552.44 1037.29 551.952C1037.23 551.463 1037.08 550.992 1036.83 550.568C1036.58 550.145 1036.24 549.777 1035.84 549.489C1035.44 549.2 1034.99 548.997 1034.51 548.893ZM1000.82 630.077C998.969 634.254 997.454 637.69 996.106 640.183L995.432 641.463H995.23C995.23 641.036 995.163 640.531 995.028 639.947C994.658 637.252 994.085 633.446 993.175 628.898C992.906 627.483 992.569 625.933 992.198 624.384C993.627 623.813 995.021 623.16 996.376 622.43C998.208 624.004 1000.25 625.319 1002.44 626.338C1001.97 627.55 1001.43 628.864 1000.82 630.077Z" fill="#263238"/>
<path d="M1018.44 568.229C1018.44 568.229 1019.42 564.658 1019.45 564.422C1019.82 561.761 1018.98 556.337 1016.08 555.024C1015.62 554.814 1015.13 554.704 1014.62 554.7C1014.12 554.697 1013.62 554.801 1013.16 555.004C1012.69 555.208 1012.28 555.507 1011.94 555.882C1011.61 556.257 1011.35 556.699 1011.2 557.179C1010.95 558.246 1010.94 559.354 1011.17 560.425C1011.39 561.496 1011.85 562.504 1012.51 563.378C1014.25 565.269 1016.24 566.902 1018.44 568.229Z" fill="#263238"/>
<path d="M241.498 573.922C243.825 574.541 246.232 574.814 248.639 574.73C248.639 574.73 247.528 571.362 247.46 571.193C246.348 568.869 242.811 565.029 239.948 565.433C239.473 565.505 239.018 565.678 238.616 565.94C238.213 566.202 237.87 566.547 237.612 566.952C237.354 567.357 237.185 567.813 237.117 568.289C237.049 568.765 237.084 569.25 237.219 569.711C237.58 570.684 238.15 571.565 238.89 572.293C239.629 573.02 240.519 573.577 241.498 573.922Z" fill="#263238"/>
<path d="M307.927 556.641C305.064 556.337 301.628 560.245 300.584 562.603C300.584 562.839 299.438 566.174 299.506 566.174C298.933 566.78 298.36 567.454 297.754 568.195C296.642 569.576 295.362 571.159 294.116 572.945C292.869 574.73 291.556 576.751 290.343 578.941C289.019 581.268 287.892 583.702 286.974 586.217C286.974 585.375 286.974 583.017 286.974 582.849C286.637 580.288 284.481 575.539 281.652 575.033C281.164 574.949 280.664 574.974 280.186 575.105C279.709 575.236 279.266 575.471 278.89 575.792C278.514 576.114 278.213 576.514 278.009 576.966C277.805 577.417 277.703 577.907 277.71 578.402C277.751 579.439 278.016 580.455 278.487 581.38C278.958 582.304 279.624 583.116 280.439 583.758C282.442 585.074 284.634 586.073 286.941 586.723C286.123 589.292 285.481 591.915 285.02 594.572C284.751 596.121 284.515 597.704 284.313 599.254C284.313 598.513 284.313 597.873 284.313 597.772C283.976 595.212 281.82 590.462 278.991 589.957C278.517 589.874 278.031 589.895 277.565 590.016C277.1 590.138 276.666 590.357 276.292 590.661C275.919 590.964 275.615 591.343 275.4 591.774C275.186 592.205 275.066 592.676 275.049 593.157C275.09 594.194 275.355 595.21 275.826 596.134C276.297 597.059 276.963 597.87 277.778 598.513C279.713 599.803 281.838 600.781 284.077 601.41C284.077 602.016 283.909 602.623 283.841 603.229C283.505 606.126 283.168 609.023 282.763 611.853L282.258 614.817C282.258 614.143 282.258 613.604 282.258 613.537C281.921 610.977 279.765 606.227 276.936 605.688C276.448 605.604 275.948 605.628 275.47 605.759C274.993 605.89 274.55 606.125 274.174 606.447C273.798 606.768 273.497 607.169 273.293 607.62C273.089 608.071 272.987 608.562 272.994 609.057C273.037 610.088 273.304 611.098 273.775 612.017C274.246 612.936 274.91 613.742 275.723 614.379C277.603 615.629 279.658 616.594 281.82 617.242C281.618 618.219 281.416 619.23 281.147 620.173C281.003 620.823 280.823 621.464 280.608 622.093L280.001 624.013C279.563 625.192 279.125 626.439 278.687 627.584C278.249 628.729 278.047 629.167 277.744 629.909C277.913 628.932 278.182 626.978 278.182 626.809C278.147 624.547 277.532 622.332 276.397 620.375C276.414 620.117 276.414 619.858 276.397 619.6C276.344 619.122 276.189 618.659 275.943 618.245C275.696 617.831 275.364 617.475 274.968 617.201C274.572 616.926 274.122 616.74 273.648 616.654C273.174 616.568 272.687 616.585 272.22 616.704C269.424 617.445 267.638 622.363 267.504 624.923C267.504 625.091 267.504 626.742 267.504 627.786L267.099 625.967C266.796 624.721 266.459 623.508 266.122 622.194C265.92 621.554 265.752 620.914 265.55 620.274C265.348 619.634 265.078 618.96 264.876 618.32C264.303 616.805 263.697 615.289 263.023 613.806C265.429 613.236 267.727 612.28 269.828 610.977C270.686 610.397 271.409 609.64 271.95 608.756C272.49 607.873 272.835 606.884 272.961 605.856C272.963 605.384 272.866 604.917 272.676 604.484C272.486 604.052 272.208 603.665 271.858 603.347C271.509 603.029 271.096 602.789 270.648 602.641C270.2 602.493 269.725 602.441 269.255 602.488C266.392 602.791 263.899 607.372 263.394 609.899C263.394 610.067 263.158 611.92 263.091 612.931C262.686 612.055 262.282 611.145 261.844 610.236C260.564 607.642 259.183 605.082 257.802 602.488L256.589 600.13C258.944 599.646 261.214 598.817 263.326 597.671C264.188 597.087 264.914 596.325 265.455 595.435C265.995 594.546 266.338 593.55 266.459 592.517C266.462 592.044 266.365 591.577 266.175 591.145C265.985 590.712 265.706 590.325 265.357 590.007C265.007 589.69 264.595 589.449 264.147 589.301C263.698 589.153 263.224 589.101 262.754 589.148C259.89 589.485 257.398 594.066 256.859 596.593C256.859 596.761 256.589 599.456 256.555 600.13C255.646 598.378 254.77 596.761 253.962 594.875C252.869 592.514 251.935 590.083 251.166 587.598C253.523 587.107 255.794 586.267 257.903 585.106C258.772 584.538 259.504 583.784 260.045 582.898C260.587 582.012 260.925 581.018 261.036 579.985C261.038 579.513 260.941 579.046 260.751 578.613C260.561 578.181 260.283 577.794 259.933 577.476C259.584 577.158 259.171 576.918 258.723 576.77C258.275 576.621 257.8 576.569 257.33 576.617C254.467 576.92 251.974 581.501 251.469 584.028C251.469 584.23 251.166 587.093 251.166 587.632C251.152 587.487 251.152 587.34 251.166 587.194C250.452 584.683 249.967 582.112 249.717 579.514C249.717 578.065 249.481 576.684 249.414 575.337C251.734 575.13 254.007 574.562 256.151 573.652C257.075 573.171 257.882 572.493 258.517 571.667C259.151 570.841 259.597 569.886 259.823 568.869C259.896 568.386 259.864 567.893 259.728 567.424C259.591 566.955 259.355 566.521 259.035 566.153C258.714 565.784 258.317 565.49 257.872 565.29C257.426 565.09 256.943 564.989 256.454 564.995C253.557 564.995 250.559 569.273 249.717 571.732C249.717 571.732 249.38 573.248 249.178 574.292C249.178 573.686 249.178 573.046 249.178 572.473C249.178 570.284 249.178 568.296 249.448 566.511C249.448 565.5 249.65 564.591 249.751 563.749C251.71 562.49 253.461 560.933 254.939 559.133C255.546 558.287 255.957 557.315 256.144 556.29C256.33 555.265 256.287 554.211 256.016 553.205C255.86 552.752 255.61 552.338 255.281 551.989C254.952 551.641 254.553 551.367 254.11 551.185C253.667 551.004 253.19 550.918 252.711 550.936C252.233 550.953 251.763 551.072 251.334 551.285C248.74 552.598 247.965 557.786 248.504 560.312C248.504 560.548 249.515 563.917 249.549 563.883C249.549 564.692 249.313 565.568 249.212 566.544C249.212 568.296 248.841 570.317 248.808 572.507C248.66 574.863 248.66 577.225 248.808 579.581C248.993 582.222 249.433 584.84 250.121 587.396L248.201 584.6C246.517 582.647 242.104 579.851 239.443 580.996C239.002 581.189 238.607 581.475 238.286 581.834C237.965 582.193 237.724 582.616 237.58 583.076C237.437 583.536 237.393 584.021 237.453 584.499C237.513 584.977 237.674 585.437 237.927 585.847C238.532 586.686 239.312 587.383 240.214 587.889C241.116 588.395 242.117 588.698 243.148 588.777C245.537 588.783 247.911 588.419 250.189 587.699C250.96 590.278 251.882 592.809 252.951 595.279C253.557 596.727 254.231 598.176 254.939 599.591L254.096 598.378C252.412 596.424 247.999 593.662 245.338 594.774C244.897 594.967 244.502 595.253 244.181 595.612C243.86 595.971 243.619 596.394 243.475 596.854C243.332 597.314 243.288 597.799 243.348 598.277C243.408 598.755 243.57 599.214 243.822 599.624C244.425 600.468 245.204 601.17 246.106 601.682C247.008 602.194 248.01 602.503 249.043 602.589C251.328 602.569 253.597 602.217 255.781 601.545C256.084 602.084 256.32 602.623 256.589 603.162C257.903 605.789 259.25 608.383 260.463 610.977L261.676 613.705L260.935 612.661C259.25 610.707 254.837 607.911 252.176 609.057C251.735 609.25 251.341 609.536 251.019 609.895C250.698 610.254 250.457 610.677 250.314 611.137C250.17 611.597 250.127 612.082 250.186 612.56C250.246 613.038 250.408 613.497 250.66 613.907C251.263 614.751 252.043 615.453 252.944 615.965C253.846 616.477 254.848 616.786 255.882 616.872C258.167 616.889 260.44 616.548 262.619 615.861C262.99 616.805 263.36 617.748 263.697 618.691C264.034 619.634 264.135 619.937 264.303 620.611C264.472 621.285 264.674 621.891 264.842 622.531C265.145 623.744 265.449 625.024 265.718 626.237L266.223 628.696C265.819 627.786 264.943 626.035 264.876 625.866C263.495 623.71 259.554 620.274 256.758 620.982C256.288 621.103 255.85 621.324 255.474 621.63C255.098 621.936 254.792 622.32 254.578 622.755C254.364 623.19 254.246 623.666 254.233 624.15C254.219 624.635 254.311 625.117 254.501 625.563C254.976 626.488 255.648 627.299 256.468 627.938C257.288 628.578 258.237 629.032 259.25 629.268C261.594 629.631 263.98 629.631 266.325 629.268C266.594 630.582 266.863 631.896 267.066 633.142C267.84 637.421 268.278 641.025 268.581 643.552C268.581 644.023 268.581 644.394 268.581 644.798H259.89L263.057 706.747H277.879L281.281 644.663H273.197V644.293C274.308 641.968 275.858 638.633 277.508 634.557C278.047 633.277 278.586 631.896 279.125 630.448C281.439 631.01 283.826 631.203 286.199 631.02C287.226 630.857 288.205 630.471 289.066 629.889C289.928 629.307 290.651 628.544 291.185 627.652C291.405 627.223 291.53 626.753 291.552 626.272C291.574 625.791 291.494 625.311 291.315 624.864C291.136 624.417 290.864 624.014 290.516 623.681C290.168 623.349 289.753 623.094 289.299 622.935C286.57 622.026 282.393 625.125 280.843 627.214L279.429 629.673C279.631 629.1 279.866 628.527 280.069 627.921C280.506 626.742 280.911 625.529 281.349 624.249C281.551 623.609 281.719 622.969 281.921 622.329C282.123 621.689 282.258 621.015 282.427 620.342C282.797 618.758 283.1 617.175 283.37 615.558C285.526 616.4 287.798 616.912 290.107 617.074C291.145 617.068 292.169 616.84 293.11 616.404C294.052 615.968 294.889 615.335 295.564 614.548C295.853 614.157 296.054 613.708 296.153 613.232C296.252 612.757 296.247 612.265 296.138 611.791C296.029 611.318 295.819 610.873 295.523 610.488C295.226 610.104 294.849 609.788 294.419 609.562C291.859 608.248 287.244 610.707 285.425 612.526C285.425 612.526 284.145 614.076 283.505 614.884C283.673 613.908 283.808 612.931 283.942 611.954C284.313 609.09 284.583 606.16 284.852 603.263C284.852 602.387 285.02 601.511 285.121 600.601C287.339 601.489 289.679 602.034 292.061 602.218C293.098 602.213 294.123 601.984 295.064 601.548C296.006 601.112 296.843 600.479 297.518 599.692C297.801 599.302 297.997 598.856 298.093 598.384C298.188 597.912 298.182 597.424 298.073 596.955C297.965 596.486 297.757 596.045 297.463 595.663C297.17 595.281 296.798 594.966 296.373 594.74C293.779 593.392 289.198 595.852 287.345 597.671C287.345 597.671 285.559 599.894 285.155 600.433C285.357 598.479 285.559 596.559 285.863 594.639C286.258 592.067 286.82 589.524 287.547 587.026C289.775 587.917 292.127 588.462 294.52 588.643C295.553 588.637 296.572 588.408 297.508 587.972C298.444 587.536 299.275 586.903 299.944 586.116C300.232 585.725 300.433 585.277 300.532 584.801C300.631 584.325 300.626 583.834 300.517 583.36C300.409 582.886 300.199 582.442 299.902 582.057C299.605 581.672 299.229 581.356 298.798 581.131C296.238 579.817 291.623 582.276 289.804 584.095C289.804 584.095 287.85 586.487 287.581 586.925V586.453C288.38 583.967 289.394 581.554 290.612 579.244C291.252 577.964 291.96 576.751 292.667 575.606C294.769 576.749 297.046 577.534 299.405 577.93C300.436 578.053 301.483 577.944 302.467 577.612C303.452 577.279 304.35 576.732 305.098 576.01C305.422 575.653 305.665 575.23 305.812 574.77C305.959 574.311 306.005 573.825 305.947 573.345C305.89 572.866 305.73 572.405 305.479 571.993C305.228 571.581 304.891 571.228 304.491 570.957C302.099 569.34 297.249 571.261 295.227 572.877L293.375 574.73C293.712 574.225 294.015 573.686 294.352 573.214C295.564 571.395 296.777 569.846 297.72 568.397C298.36 567.589 298.933 566.881 299.506 566.241C301.787 566.25 304.058 565.92 306.243 565.264C307.209 564.881 308.082 564.294 308.803 563.544C309.523 562.795 310.075 561.9 310.42 560.919C310.557 560.474 310.6 560.006 310.546 559.544C310.493 559.082 310.345 558.636 310.11 558.234C309.876 557.832 309.561 557.483 309.186 557.209C308.81 556.935 308.381 556.741 307.927 556.641ZM276.127 633.816C274.376 637.825 272.759 641.092 271.647 643.349C271.411 643.821 271.175 644.225 271.007 644.596H270.805C270.805 644.124 270.805 643.653 270.603 643.114C270.266 640.553 269.727 636.949 268.851 632.637C268.581 631.256 268.278 629.807 267.941 628.325C269.29 627.785 270.606 627.167 271.883 626.473C273.631 627.957 275.568 629.203 277.643 630.178C277.149 631.458 276.644 632.671 276.127 633.816Z" fill="#263238"/>
<path d="M292.802 575C292.802 575 293.712 571.631 293.745 571.429C294.082 568.869 293.274 563.715 290.68 562.468C290.244 562.264 289.769 562.155 289.287 562.15C288.805 562.144 288.328 562.242 287.887 562.437C287.447 562.632 287.053 562.919 286.733 563.279C286.413 563.639 286.173 564.063 286.031 564.523C285.792 565.535 285.777 566.587 285.986 567.605C286.196 568.623 286.625 569.583 287.244 570.418C288.857 572.215 290.731 573.759 292.802 575Z" fill="#263238"/>
<path d="M1044.61 713.282V80.5173" stroke="#263238" stroke-linecap="round" stroke-linejoin="round"/>
<path d="M478.683 713.282V84.4585" stroke="#263238" stroke-linecap="round" stroke-linejoin="round"/>
<path d="M117.397 402.66H1291.33" stroke="#263238" stroke-linecap="round" stroke-linejoin="round"/>
<path d="M294.621 121.143H317.696C320.662 121.143 323.507 122.321 325.604 124.419C327.702 126.516 328.88 129.361 328.88 132.327V157.895H283.302V132.327C283.302 130.847 283.596 129.382 284.166 128.016C284.737 126.65 285.573 125.411 286.626 124.371C287.679 123.331 288.927 122.51 290.3 121.955C291.672 121.401 293.141 121.125 294.621 121.143Z" fill="#263238"/>
<path d="M326.724 191.783C326.724 195.968 325.483 200.058 323.159 203.537C320.834 207.016 317.53 209.727 313.665 211.328C309.799 212.929 305.546 213.348 301.442 212.532C297.338 211.716 293.569 209.701 290.61 206.742C287.652 203.784 285.637 200.014 284.821 195.911C284.004 191.807 284.423 187.553 286.024 183.688C287.626 179.822 290.337 176.518 293.816 174.194C297.295 171.869 301.385 170.628 305.569 170.628C311.18 170.628 316.561 172.857 320.528 176.825C324.495 180.792 326.724 186.173 326.724 191.783Z" fill="white"/>
<path d="M396.118 192.76H216.199L283.673 156.009H328.476L396.118 192.76Z" fill="#263238"/>
<path d="M309.948 52.6587H302.335V126.196H309.948V52.6587Z" fill="#263238"/>
<path d="M1158.54 121.143H1181.58C1184.55 121.143 1187.39 122.321 1189.49 124.419C1191.59 126.516 1192.77 129.361 1192.77 132.327V157.895H1147.36V132.327C1147.36 129.361 1148.54 126.516 1150.63 124.419C1152.73 122.321 1155.58 121.143 1158.54 121.143Z" fill="#263238"/>
<path d="M1169.49 212.939C1181.17 212.939 1190.65 203.467 1190.65 191.783C1190.65 180.1 1181.17 170.628 1169.49 170.628C1157.81 170.628 1148.33 180.1 1148.33 191.783C1148.33 203.467 1157.81 212.939 1169.49 212.939Z" fill="white"/>
<path d="M1260.04 192.76H1080.12L1147.59 156.009H1192.4L1260.04 192.76Z" fill="#263238"/>
<path d="M1173.87 52.6587H1166.26V126.196H1173.87V52.6587Z" fill="#263238"/>
<path d="M643.881 286.442L629.261 295.436" stroke="#263238" stroke-width="0.5" stroke-linecap="round" stroke-linejoin="round"/>
<path d="M890.668 134.348L663.554 274.315" stroke="#263238" stroke-width="0.5" stroke-linecap="round" stroke-linejoin="round"/>
<path d="M920.649 143.814L738.675 255.922" stroke="#263238" stroke-width="0.5" stroke-linecap="round" stroke-linejoin="round"/>
<path d="M1000.11 94.834L945.139 128.689" stroke="#263238" stroke-width="0.5" stroke-linecap="round" stroke-linejoin="round"/>
<path d="M715.633 682.863C715.633 682.863 709.772 721.704 713.882 742.286C717.991 762.869 733.285 863.557 737.462 904.688C741.639 945.819 761.581 1008.21 762.761 1011.17C763.94 1014.14 761.009 1022.32 761.009 1025.86C761.009 1029.4 762.188 1037.65 762.188 1037.65C762.188 1037.65 745.109 1048.8 736.283 1054.12C727.457 1059.44 731.601 1061.77 739.82 1062.91C748.04 1064.06 864.46 1062.91 864.46 1062.91C864.46 1062.91 867.39 1062.34 863.853 1057.05C860.316 1051.76 836.197 1035.29 836.197 1035.29C835.73 1031.38 835.539 1027.44 835.624 1023.5C835.624 1015.28 828.55 1000.56 828.55 1000.56C828.55 1000.56 841.519 906.44 838.656 881.714C835.793 856.988 834.546 831.724 839.262 809.356C843.978 786.988 836.904 687.58 838.083 682.863C838.687 679.452 838.277 675.939 836.904 672.758C836.904 672.758 799.849 687.445 768.656 689.803C750.686 691.449 732.574 689.079 715.633 682.863Z" fill="#263238" stroke="#263238" stroke-miterlimit="10" stroke-linecap="round"/>
<path d="M863.887 1057.05C860.35 1051.76 836.231 1035.29 836.231 1035.29C836.231 1035.29 836.231 1034.85 836.231 1034.11C821.754 1038.89 808.23 1046.17 796.279 1055.64C796.279 1055.64 798.199 1053.08 787.352 1044.15C780.137 1038.71 771.087 1036.29 762.121 1037.41C762.121 1037.41 745.042 1048.56 736.216 1053.89C727.39 1059.21 731.534 1061.53 739.753 1062.68C747.972 1063.82 864.393 1062.68 864.393 1062.68C864.393 1062.68 867.424 1062.37 863.887 1057.05Z" fill="white" stroke="#263238" stroke-linecap="round" stroke-linejoin="round"/>
<path d="M737.024 1057.76C737.024 1057.76 758.684 1059.34 767.645 1056.72" stroke="#263238" stroke-width="0.75" stroke-linecap="round" stroke-linejoin="round"/>
<path d="M709.267 520.461C709.267 520.461 692.423 611.415 688.078 625.091C683.732 638.768 685.417 670.568 698.184 666.862C710.951 663.157 715.027 644.124 716.139 638.835C717.25 633.547 718.261 541.145 718.261 525.178C718.261 509.21 709.267 520.461 709.267 520.461Z" fill="#9AD0C2" stroke="#263238" stroke-linecap="round" stroke-linejoin="round"/>
<path d="M770.61 485.394C770.61 485.394 727.154 498.161 720.08 499.643C713.006 501.126 709.503 511.703 709.132 520.462C708.761 529.22 710.244 618.657 709.873 645.337C709.503 672.017 705.864 681.112 717.89 690.948C729.917 700.785 763.906 702.638 794.931 700.448C825.956 698.258 839.869 688.759 839.869 674.914C839.869 661.069 837.679 595.313 837.679 595.313C837.679 595.313 841.048 556.978 848.627 540.539C856.207 524.1 860.653 518.979 854.826 513.152C848.998 507.324 812.819 486.506 798.603 482.463C789.204 480.333 779.364 481.363 770.61 485.394Z" fill="#9AD0C2" stroke="#263238" stroke-linecap="round" stroke-linejoin="round"/>
<path d="M762.222 510.962L766.23 536.53L795.436 519.35L782.669 498.532C782.669 498.532 764.782 504.023 762.222 510.962Z" fill="#263238" stroke="#263238" stroke-linecap="round" stroke-linejoin="round"/>
<path d="M772.9 472.155C767.133 477.175 762.534 483.395 759.426 490.38C755.35 500.721 746.861 517.059 750.331 517.969C753.8 518.878 764.142 510.154 766.332 510.154C768.521 510.154 772.9 520.798 774.18 521.135C778.684 519.899 783.087 518.322 787.352 516.419C787.352 516.419 789.238 529.894 793.314 530.231C797.39 530.568 811.202 509.514 813.728 493.816C816.255 478.118 808.069 475.625 806.486 475.288C804.902 474.951 786.409 466.833 772.9 472.155Z" fill="#9AD0C2" stroke="#263238" stroke-linecap="round" stroke-linejoin="round"/>
<path d="M770.711 420.986C770.711 420.986 770.104 406.568 770.104 397.776C770.104 388.984 771.351 384.301 776.673 382.381C781.995 380.461 783.579 388.68 783.41 393.06C783.242 397.439 770.711 420.986 770.711 420.986Z" fill="#263238" stroke="#263238" stroke-linecap="round" stroke-linejoin="round"/>
<path d="M770.711 417.55C770.711 417.55 770.408 406.871 766.635 412.53C762.862 418.19 764.142 431.361 766.635 430.115C769.127 428.868 770.711 417.55 770.711 417.55Z" fill="white" stroke="#263238" stroke-linecap="round" stroke-linejoin="round"/>
<path d="M771.351 471.549C771.351 471.549 770.407 496.948 769.767 506.987C769.127 517.025 772.597 522.685 778.56 520.461C784.522 518.238 798.974 499.104 803.353 491.592C806.273 486.39 808.687 480.918 810.562 475.254C810.562 475.254 788.935 481.891 771.351 471.549Z" fill="white" stroke="#263238" stroke-linecap="round" stroke-linejoin="round"/>
<path d="M778.492 389.927C778.492 389.927 767.207 427.285 764.074 440.76C760.942 454.234 762.491 465.586 768.15 474.446C770.803 478.526 774.504 481.818 778.866 483.976C783.228 486.133 788.091 487.077 792.944 486.708C803.05 486.371 815.547 483.878 823.059 468.18C827.053 459.505 830.518 450.595 833.435 441.501C834.984 438.368 840.644 422.03 843.776 411.688C846.909 401.346 840.711 388.883 828.719 381.876C825.08 379.619 800.557 364.123 778.492 389.927Z" fill="white" stroke="#263238" stroke-linecap="round" stroke-linejoin="round"/>
<path d="M835.759 437.964C835.759 437.964 843.608 431.664 845.865 436.38C848.122 441.096 843.979 449.552 838.656 452.381C837.372 453.229 835.904 453.757 834.375 453.921C832.845 454.085 831.298 453.881 829.864 453.325C829.864 453.325 832.39 441.4 835.759 437.964Z" fill="white" stroke="#263238" stroke-linecap="round" stroke-linejoin="round"/>
<path d="M846.033 376.755L842.665 372.983C842.665 372.983 842.362 370.456 832.289 366.717C822.217 362.978 810.629 363.55 806.553 358.531C802.477 353.512 797.761 352.265 785.836 354.152C773.911 356.038 768.993 368.266 768.993 378.305C768.993 388.344 790.653 402.492 805.711 404.681C820.769 406.871 835.557 402.155 832.39 404.985C829.224 407.814 820.162 417.853 823.295 421.323C826.428 424.792 828.314 426.948 828.314 431.058C828.314 433.854 827.742 440.322 827.876 444.229C826.664 446.688 823.43 453.257 822.689 454.335C821.948 455.413 812.953 448.07 807.597 445.24C805.12 443.711 802.337 442.745 799.445 442.41C799.445 442.41 799.142 447.126 796.952 447.733C794.763 448.339 787.217 448.373 784.994 446.183C784.302 445.219 783.809 444.126 783.543 442.97C783.277 441.813 783.243 440.615 783.444 439.446C775.766 439.721 768.475 442.885 763.03 448.305C761.765 457.321 763.657 466.498 768.386 474.278C771.038 478.358 774.74 481.65 779.102 483.807C783.464 485.965 788.327 486.908 793.179 486.539C803.285 486.202 815.783 483.71 823.295 468.012C826.96 460.341 830.002 452.388 832.39 444.229C833.377 442.771 834.159 441.184 834.715 439.513C837.624 432.961 841.421 426.84 846 421.323C852.113 412.937 855.414 402.831 855.432 392.453C855.511 389.216 854.67 386.022 853.007 383.243C851.343 380.464 848.925 378.214 846.033 376.755Z" fill="#263238" stroke="#263238" stroke-linecap="round" stroke-linejoin="round"/>
<path d="M817.231 378.541C817.231 378.541 797.02 370.961 793.651 385.278C790.282 399.595 823.969 403.806 851.76 398.753" stroke="white" stroke-width="0.75" stroke-linecap="round" stroke-linejoin="round"/>
<path d="M827.337 415.596C827.337 415.596 833.233 417.28 846.707 413.069" stroke="white" stroke-width="0.75" stroke-linecap="round" stroke-linejoin="round"/>
<path d="M790.485 417.55L789.238 424.758C789.238 424.758 781.086 442.983 783.276 445.172C785.465 447.362 797.087 449.888 798.03 446.116C798.533 444.369 798.849 442.573 798.974 440.759L795.201 439.816" stroke="#263238" stroke-linecap="round" stroke-linejoin="round"/>
<path d="M803.689 420.379C803.689 420.379 815.278 417.55 818.107 427.285" stroke="#263238" stroke-linecap="round" stroke-linejoin="round"/>
<path d="M787.992 414.417C786.631 413.112 784.884 412.285 783.012 412.06C781.141 411.835 779.247 412.225 777.616 413.17" stroke="#263238" stroke-linecap="round" stroke-linejoin="round"/>
<path d="M808.372 431.327C808.102 433.214 806.991 434.696 805.879 434.46C804.767 434.224 804.06 432.641 804.33 430.755C804.599 428.868 805.677 427.386 806.822 427.622C807.968 427.858 808.608 429.441 808.372 431.327Z" fill="#263238"/>
<path d="M782.164 423.478C781.895 425.365 780.783 426.847 779.671 426.611C778.56 426.376 777.852 424.826 778.122 422.906C778.391 420.986 779.469 419.537 780.615 419.773C781.76 420.009 782.4 421.592 782.164 423.478Z" fill="#263238"/>
<path d="M805.239 454.571C792.101 470.168 781.659 457.3 780.749 453.965L805.239 454.571Z" fill="white"/>
<path d="M766.23 536.53C766.23 536.53 750.903 597.502 747.972 626.709C746.236 643.202 745.382 659.777 745.412 676.362L753.093 689.837L764.411 676.362C764.411 676.362 764.041 611.381 764.041 590.563C764.041 569.745 766.23 536.53 766.23 536.53Z" fill="#263238" stroke="#263238" stroke-linecap="round" stroke-linejoin="round"/>
<path d="M838.589 548.152C838.589 548.152 829.19 569.34 832.727 579.918C836.264 590.495 866.245 634.625 869.176 636.41C872.107 638.195 895.081 643.45 898.012 629.942C900.942 616.434 876.25 536.395 868.603 524.639C860.956 512.882 855.129 514.027 852.131 516.385" fill="#9AD0C2"/>
<path d="M838.589 548.152C838.589 548.152 829.19 569.34 832.727 579.918C836.264 590.495 866.245 634.625 869.176 636.41C872.107 638.195 895.081 643.45 898.012 629.942C900.942 616.434 876.25 536.395 868.603 524.639C860.956 512.882 855.129 514.027 852.131 516.385" stroke="#263238" stroke-linecap="round" stroke-linejoin="round"/>
<path d="M757.405 592.281L760.942 686.401L832.727 682.897L830.942 590.529L757.405 592.281Z" fill="white" stroke="#263238" stroke-linecap="round" stroke-linejoin="round"/>
<path d="M883.897 613.47C883.897 613.47 865.673 615.221 855.061 621.117C844.45 627.012 803.285 635.804 803.285 635.804L805.643 658.744C824.197 661.113 842.976 661.113 861.529 658.744C888.007 654.634 903.3 655.814 904.479 648.167C905.658 640.52 895.653 611.684 895.653 611.684" fill="#9AD0C2"/>
<path d="M883.897 613.47C883.897 613.47 865.673 615.221 855.061 621.117C844.45 627.012 803.285 635.804 803.285 635.804L805.643 658.744C824.197 661.113 842.976 661.113 861.529 658.744C888.007 654.634 903.3 655.814 904.479 648.167C905.658 640.52 895.653 611.684 895.653 611.684" stroke="#263238" stroke-linecap="round" stroke-linejoin="round"/>
<path d="M818.613 633.446L819.758 659.923" stroke="#263238" stroke-linecap="round" stroke-linejoin="round"/>
<path d="M805.071 638.162L785.23 622.295C785.23 622.295 771.755 615.221 768.757 615.221C762.634 615.871 756.55 616.849 750.533 618.152C748.175 618.758 749.354 621.689 753.463 623.475C756.076 624.546 758.86 625.139 761.683 625.226C761.683 625.226 742.886 629.336 742.886 634.052C742.886 638.768 751.105 641.093 751.105 641.093C751.105 641.093 748.747 652.276 754.036 656.42C759.325 660.563 764.647 662.281 774.046 659.788C783.444 657.296 805.812 658.61 805.812 658.61L805.071 638.162Z" fill="white" stroke="#263238" stroke-linecap="round" stroke-linejoin="round"/>
<path d="M706.033 628.258C706.033 628.258 692.289 611.886 688.078 599.187C683.867 586.487 674.334 562.132 674.334 562.132L659.007 561.593C659.007 561.593 660.59 609.158 669.113 636.141C677.635 663.123 688.651 676.834 694.478 674.206C700.306 671.579 708.761 658.879 708.761 658.879" fill="#9AD0C2"/>
<path d="M706.033 628.258C706.033 628.258 692.289 611.886 688.078 599.187C683.867 586.487 674.334 562.132 674.334 562.132L659.007 561.593C659.007 561.593 660.59 609.158 669.113 636.141C677.635 663.123 688.651 676.834 694.478 674.206C700.306 671.579 708.761 658.879 708.761 658.879" stroke="#263238" stroke-linecap="round" stroke-linejoin="round"/>
<path d="M690.2 502.473C686.219 505.388 683.555 509.76 682.789 514.634C681.711 518.845 679.623 520.428 672.683 519.923C671.476 519.74 670.244 519.797 669.059 520.092C667.874 520.387 666.759 520.913 665.778 521.641C665.508 520.536 665.35 519.408 665.306 518.272C665.306 514.499 671.74 506.212 674.671 503.821C677.601 501.429 681.88 497.925 681.408 494.725C680.936 491.525 668.843 498.464 665.373 500.89C661.904 503.315 660.017 513.185 660.017 513.185C658.227 519.257 658.064 525.693 659.546 531.848C659.175 532.656 658.838 533.431 658.468 534.34C653.718 545.962 659.007 561.829 659.007 561.829L674.334 562.368C674.334 562.368 672.751 554.451 675.378 551.251C678.003 547.102 681.015 543.211 684.372 539.629C688.583 535.924 690.705 524.841 690.705 522.18C691.187 517.265 692.437 512.457 694.411 507.93C696.533 502.978 694.95 499.307 690.2 502.473Z" fill="white" stroke="#263238" stroke-linecap="round" stroke-linejoin="round"/>
<path d="M656.008 523.156C656.008 523.156 657.895 513.286 661.365 510.861C664.834 508.436 676.894 501.496 677.399 504.73C677.905 507.964 673.66 511.467 670.662 513.792C667.664 516.116 661.297 524.504 661.297 528.243C661.553 531.366 662.28 534.433 663.453 537.338C663.453 537.338 660.084 543.503 657.558 544.278C655.032 545.053 653.078 533.06 656.008 523.156Z" fill="white" stroke="#263238" stroke-linecap="round" stroke-linejoin="round"/>
<path d="M656.547 529.052C656.547 529.052 658.434 519.148 661.904 516.756C665.373 514.364 677.399 507.391 677.938 510.591C678.477 513.792 674.199 517.329 671.201 519.687C668.203 522.045 661.836 530.399 661.836 534.138C662.092 537.261 662.819 540.328 663.992 543.234C663.992 543.234 660.624 549.364 658.097 550.173C655.571 550.981 653.617 538.955 656.547 529.052Z" fill="white" stroke="#263238" stroke-linecap="round" stroke-linejoin="round"/>
<path d="M657.221 555.529C657.221 555.529 652.943 540.808 653.482 534.947C654.021 529.085 656.143 523.965 659.108 523.696C662.072 523.426 674.603 518.878 674.603 522.348C674.603 525.818 663.116 529.591 663.116 529.591C663.116 529.591 670.325 538.955 670.056 543.739C669.77 547.16 669.149 550.545 668.203 553.845" fill="white"/>
<path d="M657.221 555.529C657.221 555.529 652.943 540.808 653.482 534.947C654.021 529.085 656.143 523.965 659.108 523.696C662.072 523.426 674.603 518.878 674.603 522.348C674.603 525.818 663.116 529.591 663.116 529.591C663.116 529.591 670.325 538.955 670.056 543.739C669.77 547.16 669.149 550.545 668.203 553.845" stroke="#263238" stroke-linecap="round" stroke-linejoin="round"/>
<path d="M752.116 738.177L765.354 747.878L796.245 1051.46" stroke="white" stroke-width="0.75" stroke-linecap="round" stroke-linejoin="round"/>
<path d="M335.718 590.024C335.718 590.024 346.161 616.333 346.633 625.765C347.104 635.197 344.679 633.682 348.62 645.977C352.562 658.273 364.015 687.647 370.483 711.463C375.61 730.895 378.114 750.925 377.927 771.021H304.458C304.458 771.021 309.915 756.131 295.025 714.461C280.136 672.791 274.207 648.032 274.207 636.174C274.207 624.317 267.739 612.358 265.247 598.951C262.754 585.544 270.704 587.026 270.704 587.026L330.767 587.531C330.767 587.531 334.742 587.026 335.718 590.024Z" fill="#263238" stroke="#263238" stroke-linecap="round" stroke-linejoin="round"/>
<path d="M264.842 592.988C265.415 586.049 270.704 587.026 270.704 587.026L330.767 587.531C330.767 587.531 334.742 587.026 335.718 590.024C335.718 590.024 346.161 616.333 346.633 625.765C346.783 628.248 346.715 630.739 346.431 633.21L345.151 635.164C345.151 635.164 343.163 652.546 319.347 653.557C295.531 654.567 282.292 643.619 277.172 633.176C272.051 622.733 270.232 605.89 266.257 596.121C265.853 594.976 265.348 594.134 264.842 592.988Z" fill="white" stroke="#263238" stroke-linecap="round" stroke-linejoin="round"/>
<path d="M274.207 636.174C274.207 624.249 267.739 612.358 265.246 598.951C263.528 589.687 266.796 587.531 268.986 587.093C269.828 587.396 272.893 589.182 276.666 600.938C281.146 614.817 278.654 633.176 281.146 648.099C283.639 663.022 296.036 695.766 304.963 720.087C312.306 740.097 313.957 759.433 310.959 771.189H304.457C304.457 771.189 309.915 756.3 295.025 714.63C280.136 672.96 274.207 648.032 274.207 636.174Z" fill="white" stroke="#263238" stroke-linecap="round" stroke-linejoin="round"/>
<path d="M641.826 770.28H582.067C580.985 770.184 579.978 769.687 579.244 768.886C578.51 768.084 578.104 767.037 578.104 765.951C578.104 764.865 578.51 763.818 579.244 763.017C579.978 762.215 580.985 761.718 582.067 761.622H641.826C643.413 761.65 644.984 761.304 646.413 760.612C647.841 759.92 649.086 758.901 650.047 757.638C651.008 756.375 651.659 754.904 651.945 753.343C652.232 751.782 652.146 750.175 651.697 748.653L630.474 672.69C630.166 671.587 630.309 670.406 630.871 669.408C631.433 668.41 632.369 667.676 633.472 667.368C634.576 667.06 635.756 667.202 636.754 667.765C637.753 668.327 638.486 669.263 638.795 670.366L660.017 746.329C660.796 749.134 660.915 752.081 660.367 754.94C659.819 757.8 658.617 760.493 656.857 762.812C655.096 765.13 652.823 767.01 650.216 768.306C647.609 769.601 644.738 770.277 641.826 770.28Z" fill="white" stroke="#263238" stroke-linecap="round" stroke-linejoin="round"/>
<path d="M634.349 572.809L620.803 571.185L599.816 746.144L613.362 747.769L634.349 572.809Z" fill="white" stroke="#263238" stroke-linecap="round" stroke-linejoin="round"/>
<path d="M634.416 572.743C647.669 631.747 640.26 693.514 613.429 747.71L634.416 572.743Z" fill="white" stroke="#263238" stroke-linecap="round" stroke-linejoin="round"/>
<path d="M681.105 769.875H89.9089V1027.58H681.105V769.875Z" fill="#263238"/>
<mask id="mask0_609_617" style="mask-type:luminance" maskUnits="userSpaceOnUse" x="89" y="769" width="593" height="259">
<path d="M681.105 769.875H89.9089V1027.58H681.105V769.875Z" fill="white"/>
</mask>
<g mask="url(#mask0_609_617)">
<path opacity="0.72" d="M681.105 769.875H89.9089V1027.58H681.105V769.875Z" fill="white"/>
</g>
<path d="M681.105 769.875H89.9089V1027.58H681.105V769.875Z" stroke="#263238" stroke-linecap="round" stroke-linejoin="round"/>
<path d="M681.24 777.186H89.9763V785.742H681.24V777.186Z" fill="#263238"/>
<path d="M686.158 764.823H74.75V778.297H686.158V764.823Z" fill="white" stroke="#263238" stroke-linecap="round" stroke-linejoin="round"/>
<path d="M1272.47 567.454L1206.04 568.027C1206.04 568.027 1201.66 567.454 1200.55 570.755C1200.55 570.755 1189.03 599.86 1188.46 610.303C1187.88 620.746 1190.68 619.061 1186.27 632.806C1181.85 646.55 1169.25 678.922 1162.11 705.299C1152.51 740.737 1150.02 778.331 1149.41 814.88C1149.41 820.742 1145.81 871.238 1154.94 871.238C1162.52 871.238 1232.42 880.501 1233.26 867.027C1236.63 813.331 1226.93 760.847 1245.59 708.701C1252.83 688.489 1261.12 666.997 1267.28 645.775C1273.45 624.552 1274.49 602.488 1278.5 580.76C1281.26 565.803 1272.47 567.454 1272.47 567.454Z" fill="#263238" stroke="#263238" stroke-linecap="round" stroke-linejoin="round"/>
<path d="M1278.97 573.922C1278.33 566.275 1272.47 567.353 1272.47 567.353L1206.04 567.926C1206.04 567.926 1201.66 567.353 1200.55 570.654C1200.55 570.654 1189.03 599.759 1188.46 610.202C1188.31 612.955 1188.39 615.715 1188.69 618.455L1190.11 620.611C1190.11 620.611 1192.3 639.846 1218.67 640.823C1245.05 641.8 1259.84 629.841 1265.33 618.32C1270.82 606.8 1273.01 588.003 1277.42 577.156C1277.86 576.246 1278.4 575.135 1278.97 573.922Z" fill="white" stroke="#263238" stroke-linecap="round" stroke-linejoin="round"/>
<path d="M1263.58 595.481C1259.13 611.516 1261.79 615.996 1257.34 643.619C1252.9 671.242 1236.86 702.402 1230.6 730.934C1224.33 759.466 1227.23 860.155 1227.94 864.602C1228.27 866.967 1228.41 869.355 1228.34 871.743C1231.3 870.631 1233.12 869.082 1233.26 866.993C1236.63 813.297 1226.93 760.814 1245.59 708.667C1252.83 688.455 1261.12 666.964 1267.28 645.741C1273.45 624.519 1274.49 602.454 1278.5 580.726C1280.18 571.631 1277.52 568.734 1275.13 567.892C1270.13 576.563 1266.25 585.834 1263.58 595.481Z" fill="white" stroke="#263238" stroke-linecap="round" stroke-linejoin="round"/>
<path d="M1082.65 597.098C1072.79 601.556 1063.25 606.7 1054.11 612.493C1045.86 618.523 1047.38 633.344 1047.38 637.185C1047.38 641.025 1025.41 676.732 1029.25 689.365C1033.09 701.997 1042.42 735.482 1043 743.263C1043.57 751.045 1041.89 772.907 1041.89 772.907H1145.67C1145.41 753.466 1146.33 734.026 1148.44 714.697C1151.8 690.005 1158.88 681.213 1158.88 643.349C1158.88 605.486 1117.68 598.311 1107.27 597.199C1099.08 596.571 1090.85 596.537 1082.65 597.098Z" fill="white" stroke="#263238" stroke-linecap="round" stroke-linejoin="round"/>
<path d="M1029.39 689.365C1032.76 700.784 1040.84 729.25 1042.86 740.265C1042.86 735.549 1042.86 731.001 1042.69 727.228C1042.16 711.328 1042.69 688.792 1058.63 652.007C1070.86 623.744 1077.9 605.25 1080.49 598.108C1071.41 602.242 1062.64 607.026 1054.25 612.425C1046 618.455 1047.51 633.277 1047.51 637.117C1047.51 640.958 1025.55 676.732 1029.39 689.365Z" fill="#9AD0C2" stroke="#263238" stroke-linecap="round" stroke-linejoin="round"/>
<path d="M946.486 768.427C946.486 768.427 939.311 779.274 934.258 786.18C929.205 793.085 921.053 806.391 926.712 806.964C932.371 807.537 938.671 801.945 944.97 798.778C949.243 796.11 952.548 792.143 954.402 787.46C954.402 787.46 952.516 799.418 956.929 796.892C961.342 794.365 961.342 785.573 961.342 779.88C961.492 775.044 961.908 770.219 962.588 765.429C962.588 765.429 954.301 758.186 946.486 768.427Z" fill="white" stroke="#263238" stroke-linecap="round" stroke-linejoin="round"/>
<path d="M949.855 782.44C949.855 782.44 919.234 782.44 914.248 785.304C909.263 788.167 892.184 868.577 877.968 901.32C877.968 901.32 866.582 929.785 857.318 943.327C853.95 948.076 838.791 954.005 828.112 956.801C817.434 959.597 813.189 961.787 814.638 964.65C816.086 967.513 838.218 972.465 848.088 973.914C857.958 975.362 864.46 972.465 867.323 972.465C870.186 972.465 873.724 976.036 879.417 973.914C885.11 971.792 881.539 956.801 881.539 948.279C881.539 939.756 892.217 909.135 904.311 896.3C916.404 883.466 939.917 834.385 944.903 819.428C949.888 804.471 951.303 800.934 951.303 800.934" fill="white"/>
<path d="M949.855 782.44C949.855 782.44 919.234 782.44 914.248 785.304C909.263 788.167 892.184 868.577 877.968 901.32C877.968 901.32 866.582 929.785 857.318 943.327C853.95 948.076 838.791 954.005 828.112 956.801C817.434 959.597 813.189 961.787 814.638 964.65C816.086 967.513 838.218 972.465 848.088 973.914C857.958 975.362 864.46 972.465 867.323 972.465C870.186 972.465 873.724 976.036 879.417 973.914C885.11 971.792 881.539 956.801 881.539 948.279C881.539 939.756 892.217 909.135 904.311 896.3C916.404 883.466 939.917 834.385 944.903 819.428C949.888 804.471 951.303 800.934 951.303 800.934" stroke="#263238" stroke-linecap="round" stroke-linejoin="round"/>
<path d="M942.478 799.62C936.926 801.967 932.22 805.946 928.983 811.03C925.746 816.114 924.132 822.063 924.354 828.085C924.354 850.116 956.727 989.948 956.727 997.696C957.115 1004.54 955.911 1011.37 953.21 1017.67C950.51 1023.96 946.386 1029.54 941.164 1033.98C938.839 1036.1 925.331 1045.6 926.881 1049.98C929.441 1057.19 947.531 1050.18 951.943 1048.29C959.927 1044.92 968.787 1030.84 977.444 1031.45C986.64 1031.99 987.786 1027.58 987.786 1018.48C987.786 1009.39 977.68 998.033 976.467 985.064C975.254 972.095 971.044 926.382 974.918 904.52C978.488 884.308 960.601 833.341 960.601 833.341C960.601 833.341 1015.58 867.027 1064.05 855.27C1112.53 843.514 1018.84 822.999 1004.63 812.623C990.413 802.248 954.133 791.771 942.478 799.62Z" fill="white" stroke="#263238" stroke-linecap="round" stroke-linejoin="round"/>
<path d="M925.634 798.104C925.634 798.104 949.855 824.447 980.61 836.675L991.289 784.731C991.289 784.731 945.711 776.882 914.383 785.438" fill="white"/>
<path d="M925.634 798.104C925.634 798.104 949.855 824.447 980.61 836.675L991.289 784.731C991.289 784.731 945.711 776.882 914.383 785.438" stroke="#263238" stroke-linecap="round" stroke-linejoin="round"/>
<path d="M1145.67 772.671C1145.41 753.23 1146.33 733.79 1148.44 714.461C1151.8 689.769 1158.88 680.977 1158.88 643.114C1158.88 607.844 1123.2 599.321 1109.86 597.3C1106.75 602.38 1104.22 607.792 1102.32 613.436C1101.21 618.927 1077.59 666.694 1072 702.402C1067.62 730.934 1071.29 761.521 1072.94 772.671H1041.82L1043.27 783.855L984.989 781.295L970.504 839.404C970.504 839.404 1001.9 852.879 1024.6 862.176C1047.31 871.473 1092.99 880.165 1120.38 871.541C1142.94 864.467 1159.75 852.272 1156.69 826.839C1154.39 808.53 1150.71 790.423 1145.67 772.671Z" fill="#9AD0C2" stroke="#263238" stroke-linecap="round" stroke-linejoin="round"/>
<path d="M1080.36 598.176L1051.89 639.374L1055.19 648.706L1045.86 659.148L1044.21 689.365" stroke="#263238" stroke-linecap="round" stroke-linejoin="round"/>
<path d="M1106.8 613.571L1105.15 646.516L1093.63 653.657L1098.01 662.45L1075.5 704.726" stroke="#263238" stroke-linecap="round" stroke-linejoin="round"/>
<path d="M1059.57 499.812C1059.57 499.812 1053.07 514.432 1053.61 518.777C1054.15 523.123 1053.1 528.243 1048.89 529.894C1044.68 531.544 1040.1 534.845 1042.16 538.45C1043.62 540.639 1045.63 542.413 1047.98 543.604C1047.98 543.604 1045.22 561.66 1046.91 566.41C1048.59 571.159 1051.92 580.187 1057.38 579.514C1062.84 578.84 1076.52 577.695 1076.52 577.695C1079.42 586.595 1079.87 596.113 1077.83 605.25C1074.46 621.184 1062.47 636.006 1075.64 639.273C1088.81 642.541 1096.53 625.563 1102.59 613.469C1108.65 601.376 1111.82 585.543 1114.55 576.414C1117.28 567.285 1121.28 557.887 1121.28 557.887C1115.36 556.061 1109.98 552.822 1105.59 548.45C1101.2 544.078 1097.94 538.703 1096.09 532.791C1088.47 511.602 1088.91 497.15 1077.49 494.152C1074.28 493.17 1070.85 493.186 1067.65 494.196C1064.45 495.207 1061.63 497.165 1059.57 499.812Z" fill="white" stroke="#263238" stroke-linecap="round" stroke-linejoin="round"/>
<path d="M1069.54 562.603C1069.54 562.603 1070.69 571.867 1081.1 566.713" stroke="#263238" stroke-linecap="round" stroke-linejoin="round"/>
<path d="M1082.01 484.181C1082.01 484.181 1070.28 483.406 1062.47 482.699C1054.65 481.992 1051.55 492.805 1053.37 498.767C1055.19 504.73 1056.98 505.505 1056.98 505.505C1056.98 505.505 1067.82 499.205 1068.9 503.483C1069.98 507.762 1059.94 516.217 1065.23 523.325C1070.52 530.433 1078.97 535.991 1074.63 540.976C1070.28 545.962 1072.47 550.644 1076.31 550.173C1080.15 549.701 1085.31 542.425 1087.4 550.442C1089.48 558.46 1079.75 564.658 1081.84 568.296C1083.93 571.934 1103.9 576.617 1109.49 572.608C1115.09 568.599 1129 564.692 1135.57 541.751C1142.14 518.811 1135.57 502.473 1121.76 488.123C1107.94 473.772 1084.33 484.99 1084.33 484.99L1082.01 484.181Z" fill="#263238" stroke="#263238" stroke-linecap="round" stroke-linejoin="round"/>
<path d="M1103.36 502.608C1105.55 503.665 1107.6 504.989 1109.46 506.549" stroke="white" stroke-width="0.75" stroke-linecap="round" stroke-linejoin="round"/>
<path d="M1069.04 498.969C1078.68 497.274 1088.58 497.769 1098.01 500.418" stroke="white" stroke-width="0.75" stroke-linecap="round" stroke-linejoin="round"/>
<path d="M946.486 768.427L948.137 764.587C949.787 760.746 967.405 757.479 984.821 754.986C1013.02 750.977 1026.79 746.463 1043.13 743.162C1063.34 739.052 1084.84 733.831 1084.84 733.831C1084.84 733.831 1121.08 742.051 1115.15 754.043C1109.22 766.035 1092.62 768.326 1092.62 768.326H954.975C955.287 769.963 954.981 771.658 954.116 773.083C953.251 774.508 951.889 775.561 950.293 776.04" fill="white"/>
<path d="M946.486 768.427L948.137 764.587C949.787 760.746 967.405 757.479 984.821 754.986C1013.02 750.977 1026.79 746.463 1043.13 743.162C1063.34 739.052 1084.84 733.831 1084.84 733.831C1084.84 733.831 1121.08 742.051 1115.15 754.043C1109.22 766.035 1092.62 768.326 1092.62 768.326H954.975C955.287 769.963 954.981 771.658 954.116 773.083C953.251 774.508 951.889 775.561 950.293 776.04" stroke="#263238" stroke-linecap="round" stroke-linejoin="round"/>
<path d="M1107.37 668.479C1107.37 668.479 1100.23 700.347 1095.82 708.566C1091.4 716.786 1082.11 714.057 1082.65 719.009C1083.12 722.409 1084.05 725.729 1085.41 728.879C1085.41 728.879 1078.67 728.879 1078.67 731.641C1078.67 734.404 1086.35 744.274 1096.26 749.192C1106.16 754.11 1113.27 759.635 1117.65 754.144C1122.03 748.653 1126.44 738.21 1125.9 736.021C1125.36 733.831 1129.74 737.671 1133.58 732.652C1134.98 730.89 1136 728.859 1136.58 726.686C1137.16 724.513 1137.28 722.244 1136.95 720.02C1136.95 715.64 1151.2 679.967 1152.85 676.665" fill="#9AD0C2"/>
<path d="M1107.37 668.479C1107.37 668.479 1100.23 700.347 1095.82 708.566C1091.4 716.786 1082.11 714.057 1082.65 719.009C1083.12 722.409 1084.05 725.729 1085.41 728.879C1085.41 728.879 1078.67 728.879 1078.67 731.641C1078.67 734.404 1086.35 744.274 1096.26 749.192C1106.16 754.11 1113.27 759.635 1117.65 754.144C1122.03 748.653 1126.44 738.21 1125.9 736.021C1125.36 733.831 1129.74 737.671 1133.58 732.652C1134.98 730.89 1136 728.859 1136.58 726.686C1137.16 724.513 1137.28 722.244 1136.95 720.02C1136.95 715.64 1151.2 679.967 1152.85 676.665" stroke="#263238" stroke-linecap="round" stroke-linejoin="round"/>
<path d="M1096.86 725.005C1106.33 726.484 1115.61 728.956 1124.55 732.382" stroke="#263238" stroke-width="0.75" stroke-linecap="round" stroke-linejoin="round"/>
<path d="M1088.58 723.152C1088.58 723.152 1098.68 739.76 1114.41 742.522" stroke="#263238" stroke-width="0.75" stroke-linecap="round" stroke-linejoin="round"/>
<path d="M1128.43 522.314C1128.43 522.314 1129.5 538.787 1115.25 564.591C1101.01 590.394 1081.2 639.812 1095.48 666.694C1109.76 693.576 1148.74 688.119 1159.72 663.965C1170.7 639.812 1163.56 578.301 1152.04 552.497C1140.52 526.693 1135.57 517.362 1135.57 517.362C1135.57 517.362 1128.83 514.061 1128.43 522.314Z" fill="#263238" stroke="#263238" stroke-linecap="round" stroke-linejoin="round"/>
<path d="M1133.68 670.231C1138.99 670.176 1144.12 668.283 1148.2 664.875" stroke="white" stroke-width="0.75" stroke-linecap="round" stroke-linejoin="round"/>
<path d="M1131.36 532.656C1134.35 565.011 1130.91 597.639 1121.25 628.662C1115.09 647.459 1116 660.294 1123.64 666.526" stroke="white" stroke-width="0.75" stroke-linecap="round" stroke-linejoin="round"/>
<path d="M1129.67 552.868C1129.67 552.868 1112.83 595.818 1099.35 625.293C1085.88 654.769 1097.67 673.296 1117.88 677.507" stroke="white" stroke-width="0.75" stroke-linecap="round" stroke-linejoin="round"/>
<path d="M1073.15 772.671C1073.15 772.671 1070.65 800.698 1075.84 804.572C1081.03 808.446 1118.56 820.135 1143.21 812.354" stroke="#263238" stroke-linecap="round" stroke-linejoin="round"/>
<path d="M1043.47 783.99L1066.78 787.898" stroke="#263238" stroke-linecap="round" stroke-linejoin="round"/>
<path d="M951.943 1048.23C959.927 1044.86 968.786 1030.78 977.444 1031.38C986.64 1031.92 987.786 1027.51 987.786 1018.41C987.508 1014.66 986.465 1011 984.72 1007.67C984.484 1008.07 984.248 1008.44 984.013 1008.88C978.654 1019.44 969.494 1027.58 958.377 1031.65C953.795 1033.37 948.744 1033.37 944.162 1031.65L943.084 1032.09C942.477 1032.73 941.837 1033.34 941.164 1033.98C938.839 1036.1 925.331 1045.6 926.881 1049.98C929.441 1057.12 947.53 1050.11 951.943 1048.23Z" fill="#9AD0C2" stroke="#263238" stroke-linecap="round" stroke-linejoin="round"/>
<path d="M837.848 953.803C834.479 955.016 831.11 956.06 828.112 956.835C817.434 959.698 813.189 961.82 814.638 964.684C816.086 967.547 838.218 972.499 848.088 973.948C857.958 975.396 864.46 972.499 867.323 972.499C870.186 972.499 873.724 976.07 879.417 973.948C884.2 972.128 882.448 961.349 881.775 952.894C874.3 955.293 866.585 956.863 858.767 957.576C844.282 958.721 839.128 955.184 837.848 953.803Z" fill="#9AD0C2" stroke="#263238" stroke-linecap="round" stroke-linejoin="round"/>
<path d="M1135.26 1000.93L1134.83 1000.59V938.577H1143.72V899.366H1110.74V938.577H1119.67V1001.74L1040.81 1026.87V1033.13C1040.93 1034.94 1041.74 1036.63 1043.06 1037.86C1044.38 1039.1 1046.12 1039.79 1047.93 1039.79C1049.74 1039.79 1051.48 1039.1 1052.81 1037.86C1054.13 1036.63 1054.93 1034.94 1055.06 1033.13V1032.06L1121.02 1024.38V1033.84C1121.02 1035.49 1121.67 1037.08 1122.84 1038.25C1124.01 1039.42 1125.59 1040.07 1127.25 1040.07C1128.9 1040.07 1130.49 1039.42 1131.65 1038.25C1132.82 1037.08 1133.48 1035.49 1133.48 1033.84V1024.07L1202.1 1032.06V1032.97C1202.22 1034.77 1203.03 1036.46 1204.35 1037.7C1205.67 1038.93 1207.41 1039.62 1209.22 1039.62C1211.03 1039.62 1212.77 1038.93 1214.1 1037.7C1215.42 1036.46 1216.22 1034.77 1216.35 1032.97V1026.7L1135.26 1000.93Z" fill="#263238" stroke="#263238" stroke-linecap="round" stroke-linejoin="round"/>
<path d="M1224.84 861.098H1037.88C1030.44 861.098 1024.4 867.131 1024.4 874.573V893.1C1024.4 900.542 1030.44 906.575 1037.88 906.575H1224.84C1232.28 906.575 1238.31 900.542 1238.31 893.1V874.573C1238.31 867.131 1232.28 861.098 1224.84 861.098Z" fill="#263238" stroke="#263238" stroke-linecap="round" stroke-linejoin="round"/>
<path d="M848.391 760.106H940.894V653.253H848.391V760.106Z" fill="white" stroke="#263238" stroke-linecap="round" stroke-linejoin="round"/>
<path d="M948.069 764.89H843.608V668.412H893.06L948.069 764.89Z" fill="white" stroke="#263238" stroke-linecap="round" stroke-linejoin="round"/>
<path d="M821.206 770.28H880.966C882.048 770.184 883.055 769.687 883.789 768.885C884.522 768.084 884.929 767.037 884.929 765.951C884.929 764.865 884.522 763.818 883.789 763.016C883.055 762.215 882.048 761.718 880.966 761.622H821.206C819.779 761.614 818.369 761.311 817.064 760.731C815.76 760.151 814.589 759.308 813.627 758.254C812.456 756.976 811.634 755.419 811.239 753.732C810.843 752.044 810.889 750.284 811.37 748.619L832.559 672.657C832.867 671.553 832.724 670.372 832.162 669.374C831.6 668.376 830.664 667.642 829.561 667.334C828.457 667.026 827.277 667.169 826.278 667.731C825.28 668.293 824.546 669.229 824.238 670.332L803.016 746.295C802.237 749.1 802.118 752.047 802.666 754.907C803.214 757.766 804.415 760.46 806.176 762.778C807.937 765.096 810.21 766.977 812.817 768.272C815.424 769.567 818.295 770.243 821.206 770.246V770.28Z" fill="white" stroke="#263238" stroke-linecap="round" stroke-linejoin="round"/>
<path d="M849.501 747.79L863.047 746.165L842.06 571.206L828.515 572.831L849.501 747.79Z" fill="white" stroke="#263238" stroke-linecap="round" stroke-linejoin="round"/>
<path d="M828.617 572.743C815.354 631.743 822.75 693.509 849.57 747.71L828.617 572.743Z" fill="white" stroke="#263238" stroke-linecap="round" stroke-linejoin="round"/>
<path d="M1316.87 769.875H770.306V1078.11H1316.87V769.875Z" fill="#263238"/>
<mask id="mask1_609_617" style="mask-type:luminance" maskUnits="userSpaceOnUse" x="770" y="769" width="547" height="310">
<path d="M1316.87 769.875H770.306V1078.11H1316.87V769.875Z" fill="white"/>
</mask>
<g mask="url(#mask1_609_617)">
<path opacity="0.72" d="M1316.87 769.875H770.306V1078.11H1316.87V769.875Z" fill="white"/>
</g>
<path d="M1316.87 769.875H770.306V1078.11H1316.87V769.875Z" stroke="#263238" stroke-linecap="round" stroke-linejoin="round"/>
<path d="M1316.46 777.286H770.576V785.809H1316.46V777.286Z" fill="#263238"/>
<path d="M1320.84 764.823H758.381V778.297H1320.84V764.823Z" fill="white" stroke="#263238" stroke-linecap="round" stroke-linejoin="round"/>
<path d="M422.394 739.154L413.972 745.891C413.972 745.891 389.987 758.523 385.339 762.296C380.69 766.069 384.092 769.876 386.619 774.524C389.145 779.173 401.34 784.192 405.55 784.192C409.761 784.192 429.131 774.929 432.095 769.471C435.06 764.014 437.99 744.611 437.99 744.611L422.394 739.154Z" fill="white" stroke="#263238" stroke-linecap="round" stroke-linejoin="round"/>
<path d="M418.048 758.085L416.802 768.191C416.802 768.191 399.52 778.297 401.205 781.262C402.889 784.226 404.573 783.35 414.679 780.419C424.785 777.489 431.522 771.998 431.96 769.471" stroke="#263238" stroke-linecap="round" stroke-linejoin="round"/>
<path d="M399.655 755.997L403.866 775.771" stroke="#263238" stroke-linecap="round" stroke-linejoin="round"/>
<path d="M390.391 760.612L399.251 782.104" stroke="#263238" stroke-linecap="round" stroke-linejoin="round"/>
<path d="M386.619 763.98C386.619 763.98 388.707 775.771 393.76 779.577" stroke="#263238" stroke-linecap="round" stroke-linejoin="round"/>
<path d="M425.358 725.679L421.989 740.838L437.99 744.611L445.132 727.768L425.358 725.679Z" fill="#9AD0C2" stroke="#263238" stroke-linecap="round" stroke-linejoin="round"/>
<path d="M401.205 554.923C399.828 564.813 400.274 574.871 402.519 584.601C406.292 597.671 422.293 662.517 424.415 667.132C426.537 671.747 426.099 678.922 424.819 686.502C423.539 694.081 428.626 712.205 428.626 713.451C428.626 714.697 421.45 719.784 421.046 724.837C420.642 729.89 429.03 733.258 436.609 734.101C444.189 734.943 449.242 734.101 453.89 713.047C458.539 691.993 445.031 663.763 436.609 630.515C428.188 597.267 416.835 572.81 415.151 566.073C413.467 559.336 403.765 547.141 401.205 554.923Z" fill="#9AD0C2" stroke="#263238" stroke-linecap="round" stroke-linejoin="round"/>
<path d="M489.362 1014.67C489.362 1014.67 497.784 1025.89 496.099 1029.26C494.415 1032.63 476.999 1037.68 473.63 1040.51C468.673 1045.45 462.466 1048.94 455.676 1050.62C444.997 1053.41 419.16 1057.89 421.989 1053.41C424.819 1048.93 456.787 1025.89 456.787 1025.89C467.444 1021.59 478.317 1017.85 489.362 1014.67Z" fill="white" stroke="#263238" stroke-linecap="round" stroke-linejoin="round"/>
<path d="M493.977 1026.73C493.977 1026.73 475.079 1033.47 469.015 1038.19C465.43 1041.01 461.596 1043.5 457.562 1045.63" stroke="#263238" stroke-width="0.75" stroke-linecap="round" stroke-linejoin="round"/>
<path d="M473.058 979.304L489.362 1014.67C489.362 1014.67 488.789 1016.93 478.683 1021.41C471.718 1024.22 464.298 1025.74 456.787 1025.89L449.477 999.516L473.058 979.304Z" fill="#263238" stroke="#263238" stroke-linecap="round" stroke-linejoin="round"/>
<path d="M445.57 717.123C445.57 717.123 432.634 724.972 432.095 728.34C432.289 733.27 433.034 738.163 434.319 742.926C434.319 742.926 407.942 797.97 400.093 811.984C392.244 825.997 380.993 853.519 392.211 870.935C403.428 888.351 437.148 970.31 437.148 970.31L425.897 1033.2L454.53 1040.51C454.53 1040.51 471.946 993.351 478.111 975.935C484.276 958.519 498.895 913.615 501.152 897.884C503.409 882.152 505.06 859.717 505.633 858.033C506.205 856.348 555.051 785.034 561.788 768.764C568.525 752.493 567.952 718.234 564.584 710.924C561.215 703.614 445.57 717.123 445.57 717.123Z" fill="#263238" stroke="#263238" stroke-linecap="round" stroke-linejoin="round"/>
<path d="M479.256 736.189L464.097 743.499L480.368 754.144L455.103 750.775L481.479 760.881" stroke="white" stroke-width="0.75" stroke-linecap="round" stroke-linejoin="round"/>
<path d="M520.792 743.499L489.901 755.828C489.901 755.828 528.64 748.518 546.056 749.091" stroke="#263238" stroke-linecap="round" stroke-linejoin="round"/>
<path d="M485.421 763.711C485.421 763.711 446.682 848.5 446.682 864.197C446.682 879.895 441.056 966.402 441.056 966.402" stroke="white" stroke-width="0.75" stroke-linecap="round" stroke-linejoin="round"/>
<path d="M454.227 524.066C454.227 524.066 402.451 549.6 401.306 554.923C400.161 560.245 406.258 575.471 406.258 575.471C406.258 575.471 438.226 679.461 440.887 687.849C443.549 696.237 444.694 698.123 442.033 702.301C439.371 706.478 435.935 714.124 439.742 718.302C443.549 722.479 469.083 730.126 485.454 730.126C501.826 730.126 531.167 725.174 550.2 720.592C569.232 716.011 568.491 707.657 567.717 698.898C566.942 690.14 555.926 540.067 555.926 534.34C555.926 528.614 515.503 520.259 501.826 519.485C488.149 518.71 458.809 519.485 454.227 524.066Z" fill="#9AD0C2" stroke="#263238" stroke-linecap="round" stroke-linejoin="round"/>
<path d="M459.819 550.005L472.923 587.06L493.977 549.499C493.977 549.499 488.284 531.309 472.923 532.454C457.562 533.599 459.819 550.005 459.819 550.005Z" fill="#263238" stroke="#263238" stroke-linecap="round" stroke-linejoin="round"/>
<path d="M472.923 586.992C472.923 586.992 466.186 689.971 466.186 695.092C466.186 700.212 461.065 716.718 461.065 716.718L472.451 729.789C472.451 729.789 490.642 716.718 493.505 707.05C496.369 697.382 472.923 586.992 472.923 586.992Z" fill="#263238" stroke="#263238" stroke-linecap="round" stroke-linejoin="round"/>
<path d="M454.227 520.63C454.227 520.63 451.566 536.631 453.082 543.503C454.598 550.375 448.13 565.972 451.195 567.858C454.261 569.745 464.501 549.196 464.501 549.196L475.955 568.633L483.568 548.051C483.568 548.051 494.213 569.004 497.278 567.117C500.344 565.231 495.358 552.261 499.94 545.794C502.341 541.781 503.88 537.313 504.46 532.674C505.04 528.034 504.648 523.324 503.308 518.845C500.613 508.57 489.598 508.57 480.435 509.682C471.272 510.794 460.695 510.726 454.227 520.63Z" fill="#9AD0C2" stroke="#263238" stroke-linecap="round" stroke-linejoin="round"/>
<path d="M454.227 524.066C454.227 524.066 466.422 540.909 468.712 548.826C471.003 556.742 474.405 573.585 475.955 568.633C477.505 563.681 476.696 544.648 485.859 533.97C495.021 523.291 492.596 515.678 492.596 515.678C492.596 515.678 480.907 530.13 454.227 524.066Z" fill="white" stroke="#263238" stroke-linecap="round" stroke-linejoin="round"/>
<path d="M429.872 493.614C429.872 493.614 444.694 522.921 459.954 530.669C475.214 538.416 491.181 530.298 495.358 518.508C499.535 506.718 495.729 491.559 495.729 491.559C495.729 491.559 504.117 486.607 505.262 480.139C506.407 473.671 507.553 471.38 498.794 466.429C495.43 464.278 491.851 462.482 488.116 461.072C488.116 461.072 487.745 448.137 480.132 443.96C472.519 439.783 456.551 442.04 446.985 452.314C437.418 462.588 429.872 493.614 429.872 493.614Z" fill="white" stroke="#263238" stroke-linecap="round" stroke-linejoin="round"/>
<path d="M455.103 490.548C457.757 494.329 459.929 498.425 461.571 502.743C462.346 506.549 459.28 511.13 463.862 511.13C465.212 511.129 466.549 510.858 467.793 510.331C469.037 509.805 470.163 509.034 471.104 508.065" stroke="#263238" stroke-linecap="round" stroke-linejoin="round"/>
<path d="M463.727 478.994C463.727 478.994 465.647 472.256 474.54 473.57" stroke="#263238" stroke-linecap="round" stroke-linejoin="round"/>
<path d="M449.073 485.024C449.073 485.024 442.336 483.137 436.003 491.087" stroke="#263238" stroke-linecap="round" stroke-linejoin="round"/>
<path d="M466.893 511.164L469.453 518.744C473.109 518.025 476.485 516.282 479.187 513.717C481.889 511.152 483.806 507.872 484.713 504.259" stroke="#263238" stroke-linecap="round" stroke-linejoin="round"/>
<path d="M456.888 498.363C456.888 500.435 456.274 502.461 455.123 504.184C453.972 505.907 452.335 507.249 450.421 508.042C448.507 508.835 446.4 509.043 444.368 508.639C442.336 508.234 440.469 507.237 439.004 505.771C437.539 504.306 436.541 502.439 436.137 500.407C435.733 498.375 435.94 496.269 436.733 494.354C437.526 492.44 438.869 490.804 440.592 489.653C442.314 488.501 444.34 487.887 446.412 487.887C447.788 487.887 449.15 488.158 450.421 488.684C451.692 489.211 452.847 489.983 453.82 490.955C454.793 491.928 455.565 493.083 456.091 494.354C456.617 495.625 456.888 496.988 456.888 498.363Z" stroke="#263238" stroke-width="0.5" stroke-linecap="round" stroke-linejoin="round"/>
<path d="M483.164 484.08L494.617 473.806" stroke="#263238" stroke-width="0.5" stroke-linecap="round" stroke-linejoin="round"/>
<path d="M483.568 487.314C483.568 489.386 482.954 491.412 481.803 493.135C480.651 494.857 479.015 496.2 477.101 496.993C475.187 497.786 473.08 497.994 471.048 497.589C469.016 497.185 467.149 496.187 465.684 494.722C464.219 493.257 463.221 491.39 462.817 489.358C462.412 487.326 462.62 485.219 463.413 483.305C464.206 481.391 465.548 479.754 467.271 478.603C468.994 477.452 471.02 476.838 473.092 476.838C475.87 476.838 478.535 477.941 480.5 479.906C482.464 481.871 483.568 484.536 483.568 487.314Z" stroke="#263238" stroke-width="0.5" stroke-linecap="round" stroke-linejoin="round"/>
<path d="M476.191 486.135C476.73 487.314 476.528 488.594 475.719 488.965C474.911 489.335 473.833 488.628 473.294 487.415C472.755 486.202 472.957 484.956 473.765 484.585C474.574 484.215 475.652 484.922 476.191 486.135Z" fill="#263238"/>
<path d="M452.745 495.534C453.284 496.746 453.082 498.026 452.273 498.363C451.465 498.7 450.387 498.06 449.848 496.847C449.309 495.635 449.511 494.388 450.32 494.018C451.128 493.647 452.206 494.321 452.745 495.534Z" fill="#263238"/>
<path d="M455.103 494.355C455.103 494.355 459.28 489.032 463.087 491.323" stroke="#263238" stroke-width="0.5" stroke-linecap="round" stroke-linejoin="round"/>
<path d="M461.47 459.388C461.47 459.388 448.534 473.469 438.63 486.337C435.05 491.439 431.098 496.269 426.806 500.789C424.455 496.448 422.418 491.945 420.709 487.314C419.499 483.686 418.105 480.122 416.532 476.636L413.163 484.249C413.163 484.249 403.26 447.194 413.938 430.182C424.617 413.17 448.736 408.69 467.028 415.158C485.32 421.626 487.812 438.57 491.248 447.328C494.684 456.087 497.716 467.102 497.716 467.102L492.764 477.781C492.764 477.781 483.635 469.797 479.054 465.586C476.202 462.866 474.102 459.454 472.957 455.683C472.957 455.683 465.344 464.845 463.053 467.507C461.824 468.986 460.251 470.143 458.472 470.875L461.47 459.388Z" fill="#263238" stroke="#263238" stroke-linecap="round" stroke-linejoin="round"/>
<path d="M465.007 423.445C460.872 440.448 452.278 456.041 440.113 468.618" stroke="white" stroke-width="0.75" stroke-linecap="round" stroke-linejoin="round"/>
<path d="M469.622 426.207C470.509 435.977 468.922 445.812 465.007 454.807" stroke="white" stroke-width="0.75" stroke-linecap="round" stroke-linejoin="round"/>
<path d="M552.793 530.635C552.793 530.635 567.481 534.475 572.601 541.516C577.721 548.556 612.216 645.674 613.496 662.281C614.776 678.889 609.656 713.383 610.936 717.224C612.216 721.064 616.056 726.184 612.216 728.104C608.722 730.26 605.499 732.828 602.616 735.751C594.278 735.344 585.968 734.49 577.721 733.191C573.881 731.911 568.761 723.624 572.601 718.504C575.382 715.061 576.956 710.801 577.081 706.377C577.081 703.816 569.098 672.387 569.098 665.953C569.121 660.101 568.806 654.252 568.154 648.436C565.904 639.072 563.137 629.839 559.868 620.78C549.615 602.166 544.521 581.151 545.113 559.908" fill="#9AD0C2"/>
<path d="M552.793 530.635C552.793 530.635 567.481 534.475 572.601 541.516C577.721 548.556 612.216 645.674 613.496 662.281C614.776 678.889 609.656 713.383 610.936 717.224C612.216 721.064 616.056 726.184 612.216 728.104C608.722 730.26 605.499 732.828 602.616 735.751C594.278 735.344 585.968 734.49 577.721 733.191C573.881 731.911 568.761 723.624 572.601 718.504C575.382 715.061 576.956 710.801 577.081 706.377C577.081 703.816 569.098 672.387 569.098 665.953C569.121 660.101 568.806 654.252 568.154 648.436C565.904 639.072 563.137 629.839 559.868 620.78C549.615 602.166 544.521 581.151 545.113 559.908" stroke="#263238" stroke-linecap="round" stroke-linejoin="round"/>
<path d="M577.856 733.191L576.576 745.352L597.664 748.518L602.751 735.751L577.856 733.191Z" fill="#9AD0C2" stroke="#263238" stroke-linecap="round" stroke-linejoin="round"/>
<path d="M576.576 745.352C576.576 745.352 552.288 756.199 550.368 759.399C548.448 762.599 544.608 777.927 542.048 779.847C539.487 781.767 536.961 784.327 543.968 783.687C550.975 783.047 552.928 779.207 552.928 779.207C552.596 781.564 552.596 783.957 552.928 786.314C558.193 786.952 563.491 787.278 568.795 787.291C570.382 787.501 571.99 787.501 573.578 787.291C573.578 787.291 572.298 790.357 574.69 791.367C577.081 792.378 576.947 790.087 578.496 787.999C580.36 784.524 581.948 780.909 583.246 777.185C584.026 775.29 584.591 773.312 584.93 771.29C588.776 769.213 592.285 766.567 595.339 763.441C598.708 759.365 596.889 747.575 596.889 747.575L576.576 745.352Z" fill="white" stroke="#263238" stroke-linecap="round" stroke-linejoin="round"/>
<path d="M552.928 779.207L554.208 763.138" stroke="#263238" stroke-linecap="round" stroke-linejoin="round"/>
<path d="M559.261 787.157L561.35 764.418" stroke="#263238" stroke-linecap="round" stroke-linejoin="round"/>
<path d="M567.245 786.719L570.614 765.665" stroke="#263238" stroke-linecap="round" stroke-linejoin="round"/>
<path d="M573.713 787.157C573.713 787.157 576.509 769.033 577.082 766.945" stroke="#263238" stroke-linecap="round" stroke-linejoin="round"/>
<path d="M425.897 1033.2C425.897 1033.2 416.364 1041.62 414.679 1042.74C412.995 1043.85 382.105 1060.72 382.677 1065.2C383.25 1069.68 415.252 1067.46 433.207 1062.95C451.162 1058.43 452.307 1056.78 452.846 1053.99C453.385 1051.19 454.53 1040.51 454.53 1040.51L425.897 1033.2Z" fill="white" stroke="#263238" stroke-linecap="round" stroke-linejoin="round"/>
<path d="M388.774 1063.15C388.774 1063.15 431.253 1062.48 448.13 1051.7" stroke="#263238" stroke-width="0.75" stroke-linecap="round" stroke-linejoin="round"/>
<path d="M197.267 1038.59C197.267 1038.59 233.11 1048.26 241.666 1055.67C250.222 1063.08 224.587 1065.34 208.653 1064.77C192.72 1064.19 191.036 1059.65 179.65 1059.65C168.264 1059.65 158.023 1064.77 156.305 1054.53C154.587 1044.28 168.836 1040.31 178.504 1038.02C184.713 1036.7 191.15 1036.89 197.267 1038.59Z" fill="white" stroke="#263238" stroke-linecap="round" stroke-linejoin="round"/>
<path d="M186.926 1055.06C186.926 1055.06 204.476 1066.52 235.502 1059.78" stroke="#263238" stroke-width="0.75" stroke-linecap="round" stroke-linejoin="round"/>
<path d="M161.425 1044.28C170.128 1049.93 179.263 1054.87 188.745 1059.07C201.276 1064.19 210.372 1065.81 204.679 1070.46C198.986 1075.11 197.267 1075.58 183.052 1078.41C168.836 1081.24 140.371 1073.86 137.542 1073.86C134.712 1073.86 131.849 1077.23 124.067 1074.43C116.285 1071.64 114.972 1067.7 117.801 1058.5C120.631 1049.3 156.878 1041.42 161.425 1044.28Z" fill="white" stroke="#263238" stroke-linecap="round" stroke-linejoin="round"/>
<path d="M132.32 1067.87C153.822 1075.47 177.163 1076.18 199.086 1069.89" stroke="#263238" stroke-width="0.75" stroke-linecap="round" stroke-linejoin="round"/>
<path d="M240.521 650.02L247.258 721.704C247.258 721.704 237.556 824.683 225.631 858.235C213.706 891.787 202.859 928.774 198.884 942.451C194.909 956.128 190.934 1009.59 194.337 1020.37C196.256 1025.46 197.215 1030.86 197.166 1036.3V1038.59C197.166 1038.59 199.457 1040.31 191.473 1044.86C185.764 1047.85 179.629 1049.95 173.283 1051.09L161.324 1044.35C161.324 1044.35 144.279 1056.85 138.013 1060.29C131.438 1063 124.562 1064.91 117.532 1065.98C114.917 1061.86 113.387 1057.14 113.085 1052.27V1030.1C113.085 1022.12 107.392 982.942 107.965 958.991C108.537 935.04 113.085 908.899 117.633 896.974C122.18 885.049 137.541 848.601 137.541 848.601C136.797 833.166 134.311 817.865 130.13 802.989C122.753 773.985 121.035 759.197 111.367 727.902C101.699 696.608 121.035 650.424 121.035 650.424C121.035 650.424 165.973 658.374 190.463 657.161C207.318 656.176 224.062 653.787 240.521 650.02Z" fill="#263238" stroke="#263238" stroke-linecap="round" stroke-linejoin="round"/>
<path d="M155.294 711.463C157.782 715.87 160.632 720.062 163.817 723.995" stroke="white" stroke-width="0.75" stroke-linecap="round" stroke-linejoin="round"/>
<path d="M185.915 667.671L204.679 668.244L204.106 663.662" stroke="white" stroke-width="0.75" stroke-linecap="round" stroke-linejoin="round"/>
<path d="M211.517 664.875V669.423C211.517 669.423 227.417 673.431 239.948 666.593" stroke="white" stroke-width="0.75" stroke-linecap="round" stroke-linejoin="round"/>
<path d="M229.708 674.981L225.16 692.633L232.537 702.738C232.537 702.738 221.758 721.502 221.758 723.22" stroke="white" stroke-width="0.75" stroke-linecap="round" stroke-linejoin="round"/>
<path d="M233.11 726.824L214.347 742.354C214.347 742.354 202.961 839.067 196.695 864.096C190.429 889.125 167.118 970.478 164.289 988.736C162.702 997.576 161.577 1006.49 160.92 1015.45C160.92 1017.17 164.289 1023.43 164.289 1026.84V1039.94" stroke="white" stroke-width="0.75" stroke-linecap="round" stroke-linejoin="round"/>
<path d="M177.359 660.26C177.359 660.26 211.517 664.808 226.878 663.629C242.239 662.45 244.496 656.251 246.214 650.558C247.932 644.865 225.733 509.48 224.587 501.496C223.442 493.512 225.16 480.442 214.481 475.894C203.803 471.347 180.795 479.263 176.921 494.691C173.047 510.12 185.477 599.355 182.041 618.691C179.756 632.456 178.193 646.331 177.359 660.26Z" fill="white" stroke="#263238" stroke-linecap="round" stroke-linejoin="round"/>
<path d="M206.936 502.675L215.492 518.036L218.322 645.472L228.562 669.928L237.085 639.779L220.612 516.891L222.869 498.7L216.065 483.912L206.936 502.675Z" fill="#263238" stroke="#263238" stroke-linecap="round" stroke-linejoin="round"/>
<path d="M218.321 496.41L228.562 514.061L223.442 481.621L213.201 487.887L218.321 496.41Z" fill="white" stroke="#263238" stroke-linecap="round" stroke-linejoin="round"/>
<path d="M193.293 446.352L190.463 459.422L213.774 500.957C213.774 500.957 220.747 485.462 223.442 481.621C226.137 477.781 236.916 460.904 236.916 460.904C236.916 460.904 219.635 462.285 216.705 452.045C213.774 441.804 216.705 427.588 205.891 426.443C195.078 425.298 193.293 446.352 193.293 446.352Z" fill="white" stroke="#263238" stroke-linecap="round" stroke-linejoin="round"/>
<path d="M204.611 438.301L205.723 442.141C205.112 444.034 204.933 446.039 205.202 448.01C205.47 449.981 206.178 451.866 207.272 453.527C211.045 458.344 232.234 469.966 241.498 467.237C250.762 464.509 253.591 437.627 253.591 437.627C253.591 437.627 262.451 437.425 261.541 432.338C260.632 427.251 255.478 421.693 254.804 415.899C254.13 410.105 257.398 408.623 256.05 401.919C255.198 395.25 251.733 389.192 246.416 385.076C240.285 380.36 206.767 395.485 196.83 406.096C186.892 416.708 184.837 427.959 187.296 434.359C189.756 440.76 204.611 438.301 204.611 438.301Z" fill="white" stroke="#263238" stroke-linecap="round" stroke-linejoin="round"/>
<path d="M247.46 418.459C247.46 420.548 246.551 422.165 245.708 422.131C244.866 422.097 244.327 420.346 244.462 418.291C244.597 416.236 245.372 414.585 246.214 414.619C247.056 414.653 247.595 416.404 247.46 418.459Z" fill="#263238"/>
<path d="M249.818 408.859C249.818 408.859 245.574 404.951 241.262 411.351" stroke="#263238" stroke-linecap="round" stroke-linejoin="round"/>
<path d="M242.037 445.914C239.936 445.343 238.101 444.056 236.849 442.276" stroke="#263238" stroke-linecap="round" stroke-linejoin="round"/>
<path d="M208.754 413.979L207.643 424.388L214.212 422.468C214.212 422.468 210.843 430.62 215.492 426.847C220.14 423.074 226.709 410.509 228.764 409.33C230.819 408.151 242.239 397.068 250.189 389.422C258.139 381.775 261.507 371.332 258.812 366.178C256.118 361.024 223.509 338.555 193.73 354.354C163.952 370.153 155.901 393.262 159.033 405.995C162.166 418.729 185.982 452.011 190.395 452.516C194.808 453.021 204.611 438.301 204.611 438.301C204.611 438.301 191.777 434.932 194.505 429.441C197.234 423.95 208.754 413.979 208.754 413.979Z" fill="#263238" stroke="#263238" stroke-linecap="round" stroke-linejoin="round"/>
<path d="M189.318 416.809C185.424 419.576 181.325 422.042 177.056 424.186" stroke="white" stroke-width="0.75" stroke-linecap="round" stroke-linejoin="round"/>
<path d="M242.441 361.866C230.455 378.305 216.795 393.455 201.68 407.073" stroke="white" stroke-width="0.75" stroke-linecap="round" stroke-linejoin="round"/>
<path d="M180.323 408.32C179.043 409.499 177.729 410.711 176.348 411.924" stroke="white" stroke-width="0.75" stroke-linecap="round" stroke-linejoin="round"/>
<path d="M217.884 363.281C209.097 377.367 198.684 390.369 186.858 402.02" stroke="white" stroke-width="0.75" stroke-linecap="round" stroke-linejoin="round"/>
<path d="M189.318 454.874L218.322 496.41L197.268 517.464L182.479 460.567L189.318 454.874Z" fill="white" stroke="#263238" stroke-linecap="round" stroke-linejoin="round"/>
<path d="M174.529 464.003L134.712 477.074C134.712 477.074 103.417 626.136 101.025 630.111C98.6338 634.086 57.8059 707.589 62.9262 715.438C68.0465 723.287 116.824 749.596 120.934 747.878C125.044 746.16 153.947 690.982 171.464 675.048C188.981 659.115 206.935 639.206 209.192 617.04L193.831 551.588L192.113 510.625L174.529 464.003Z" fill="#9AD0C2" stroke="#263238" stroke-linecap="round" stroke-linejoin="round"/>
<path d="M185.915 460.567L174.529 464.003L171.666 519.754L191.035 530.567L179.649 547.613L209.226 617.04L197.267 509.513L185.915 460.567Z" fill="#9AD0C2" stroke="#263238" stroke-linecap="round" stroke-linejoin="round"/>
<path d="M149.096 701.155L103.653 740.703C103.653 740.703 108.133 746.093 121.035 747.878C121.035 747.878 141.247 720.255 149.096 701.155Z" fill="#9AD0C2" stroke="#263238" stroke-linecap="round" stroke-linejoin="round"/>
<path d="M156.305 668.244C163.921 668.374 171.524 668.936 179.077 669.928C183.052 671.073 198.413 687.007 198.413 687.007C198.413 687.007 198.413 688.725 192.72 690.376C187.027 692.026 176.786 684.683 176.786 684.683L154.621 705.737L140.944 688.691L156.305 668.244Z" fill="white" stroke="#263238" stroke-linecap="round" stroke-linejoin="round"/>
<path d="M154.62 661.978L159.741 668.783L140.944 688.691L138.687 681.314L154.62 661.978Z" fill="white" stroke="#263238" stroke-linecap="round" stroke-linejoin="round"/>
<path d="M168.769 468.551C168.769 468.551 115.275 468.551 111.3 473.099C107.325 477.646 65.2168 605.082 65.2168 612.459C65.2168 619.837 137.474 687.58 137.474 687.58L157.955 662.551L117.06 598.244L149.5 528.277" fill="#9AD0C2"/>
<path d="M168.769 468.551C168.769 468.551 115.275 468.551 111.3 473.099C107.325 477.646 65.2168 605.082 65.2168 612.459C65.2168 619.837 137.474 687.58 137.474 687.58L157.955 662.551L117.06 598.244L149.5 528.277" stroke="#263238" stroke-linecap="round" stroke-linejoin="round"/>
</svg>
